#N canvas 1208 42 404 481 12;
#X obj 155 446 dac~;
#X obj 155 354 osc~ 440;
#X obj 312 44 vsl 19 162 0 1 0 0 empty empty empty 0 -9 0 12 #fcfcfc #000000 #000000 0 1;
#X obj 155 232 * 440;
#X obj 155 270 + 440;
#X floatatom 155 311 5 0 0 0 - - - 0;
#X obj 155 392 *~ 0.4;
#X obj 155 164 r Knob1 @hv_param;
#X obj 40 232 adc~;
#X obj 85 280 *~;
#X obj 96 92 r Knob2 @hv_param;
#X connect 1 0 6 0;
#X connect 2 0 3 0;
#X connect 3 0 4 0;
#X connect 4 0 5 0;
#X connect 5 0 1 0;
#X connect 6 0 0 0;
#X connect 7 0 3 0;
#X connect 8 0 9 0;
#X connect 9 0 0 0;
#X connect 10 0 9 1;
