#N canvas 827 239 527 327 12;
#X obj 1017 732 -;
#X obj 1017 772 / 20;
#X obj 1017 809 t b f;
#X msg 1001 848 10;
#X obj 1018 885 pow;
#X text 1055 847 gr = 20*log10(output - input);
#X obj 812 571 t b f;
#X obj 683 632 f;
#X obj 683 667 /;
#X obj 683 602 -;
#X obj 635 500 f;
#X obj 802 462 t b f f;
#X obj 683 698 +;
#X obj 826 364 t b b;
#X obj 638 365 env~ 256;
#X obj 638 451 t f f;
#X obj 652 1124 line~;
#X text 1101 789 Gain reduction;
#X obj 635 825 min 1;
#X obj 638 536 moses 70;
#X obj 698 572 t f f;
#X obj 638 405 max;
#X obj 562 1130 *~;
#X obj 818 412 f \$1;
#X obj 854 412 f \$2;
#X obj 826 323 loadbang;
#X obj 638 733 t a;
#X floatatom 792 259 5 0 0 0 - - - 12;
#X text 825 32 threshold;
#X floatatom 478 394 10 0 0 0 - - - 24;
#X floatatom 478 441 10 0 0 0 - - - 24;
#X obj 1163 270 oscope~ 238 137 2 3 128 0 2 0 0 0 0 77 77 77 228 228 228 183 183 183 0 empty;
#X obj 771 878 == 1;
#X obj 635 878 < 1;
#X text 884 905 ms attack;
#X text 1017 971 ms release;
#X obj 562 1289 dac~;
#X obj 628 946 spigot;
#X obj 771 946 spigot;
#X obj 835 60 knob 50 0 100 0 0 empty empty #E4E4E4 #B7B7B7 #4D4D4D 1 0 0 0 1 270 0 0 0;
#X floatatom 848 158 11 0 0 0 - - - 16;
#X obj 1178 65 knob 50 0 250 0 0 empty empty #E4E4E4 #B7B7B7 #4D4D4D 1 0 0 0 1 270 0 0 0;
#X obj 634 1003 pack;
#X msg 635 1077 \$1 \$2;
#X obj 826 1008 pack;
#X msg 771 1077 \$1 \$2;
#X floatatom 1178 132 9 0 0 0 - - - 12;
#X obj 562 1202 *~;
#X obj 1452 68 knob 50 0.1 4 0 0 empty empty #E4E4E4 #B7B7B7 #4D4D4D 1 0 0 0 1 270 0 0 0.1;
#X text 1452 42 Make up gain;
#X obj 708 1005 r attack;
#X obj 1178 169 s attack;
#X obj 906 979 r release;
#X obj 1295 65 knob 50 10 1000 0 0 empty empty #E4E4E4 #B7B7B7 #4D4D4D 1 0 0 0 1 270 0 0 10;
#X floatatom 1295 133 11 0 0 0 - - - 12;
#X obj 1295 175 s release;
#X obj 638 1182 r makeupgain;
#X obj 1452 140 s makeupgain;
#X obj 909 1163 s~ gainreduction;
#X obj 1163 235 r~ gainreduction;
#N canvas 733 172 450 300 fileplayer 0;
#X obj 566 60 openpanel;
#X msg 548 117 open \$1;
#X obj 520 184 readsf~;
#X obj 569 16 bng 19 250 50 0 empty empty empty 17 7 0 10 #e4e4e4 #4d4d4d #373737;
#X msg 401 117 1;
#X msg 425 175 0;
#X obj 440 111 bng 20 250 50 0 empty empty empty 17 7 0 10 #e4e4e4 #4d4d4d #373737;
#X msg 440 33 open test.wav;
#X obj 638 365 outlet~;
#X connect 0 0 1 0;
#X connect 1 0 2 0;
#X connect 2 0 8 0;
#X connect 2 1 6 0;
#X connect 3 0 0 0;
#X connect 4 0 2 0;
#X connect 5 0 2 0;
#X connect 6 0 7 0;
#X connect 7 0 2 0;
#X restore 440 169 pd fileplayer;
#X obj 564 175 adc~;
#X obj 1017 68 knob 50 0.1 4 0 0 empty empty #E4E4E4 #B7B7B7 #4D4D4D 1 0 0 0 1 270 0 0 0.1;
#X text 1018 42 Ratio;
#X obj 1017 140 s ratio;
#X obj 906 525 r ratio;
#X connect 0 0 1 0;
#X connect 1 0 2 0;
#X connect 2 0 3 0;
#X connect 2 1 4 1;
#X connect 3 0 4 0;
#X connect 4 0 18 0 48.................Q....T7+++eD....E++++S5+++uf9+++j9+++Kn+++er++++;
#X connect 6 0 7 0;
#X connect 6 1 8 1;
#X connect 7 0 8 0;
#X connect 8 0 12 0;
#X connect 9 0 7 0;
#X connect 10 0 19 0;
#X connect 11 0 10 0 32.................G....z0++++A....c8+++a.....;
#X connect 11 1 19 1 32.................O....z2++++C....88+++aC....;
#X connect 11 2 20 0 32.................7....v2+++OO....78+++qE....;
#X connect 12 0 26 0;
#X connect 13 0 23 0;
#X connect 13 1 24 0;
#X connect 14 0 21 0;
#X connect 14 0 29 0;
#X connect 15 0 10 0;
#X connect 15 1 0 1 64.................K....7E...vB....eA...HB...P6....h....zN...PH....6E...DB...vdA...ED....;
#X connect 16 0 22 1;
#X connect 16 0 58 0;
#X connect 18 0 33 0;
#X connect 18 0 32 0;
#X connect 18 0 37 0;
#X connect 18 0 38 0;
#X connect 19 0 26 0;
#X connect 19 1 9 0;
#X connect 20 0 9 1;
#X connect 20 1 12 1;
#X connect 21 0 15 0;
#X connect 21 0 30 0;
#X connect 22 0 47 0;
#X connect 23 0 11 0;
#X connect 24 0 6 0;
#X connect 25 0 13 0;
#X connect 26 0 0 0 48......................HT.........BE...r8+++udA...a++++qW....6++++;
#X connect 27 0 11 0;
#X connect 32 0 38 1;
#X connect 33 0 37 1;
#X connect 37 0 42 0;
#X connect 38 0 44 0;
#X connect 39 0 40 0;
#X connect 39 0 27 0;
#X connect 41 0 46 0;
#X connect 42 0 43 0;
#X connect 43 0 16 0;
#X connect 44 0 45 0;
#X connect 45 0 16 0;
#X connect 46 0 51 0;
#X connect 47 0 36 0;
#X connect 47 0 36 1;
#X connect 48 0 57 0;
#X connect 50 0 42 1;
#X connect 52 0 44 1;
#X connect 53 0 54 0;
#X connect 54 0 55 0;
#X connect 56 0 47 1;
#X connect 59 0 31 0;
#X connect 61 0 14 0;
#X connect 61 0 22 0;
#X connect 62 0 64 0;
#X connect 65 0 6 0;
