#N canvas 827 239 527 327 12;
#X obj 1017 732 -;
#X obj 1017 772 / 20;
#X obj 1017 809 t b f;
#X msg 1001 848 10;
#X obj 1018 885 pow;
#X text 1055 847 gr = 20*log10(output - input);
#X obj 812 571 t b f;
#X obj 683 632 f;
#X obj 683 667 /;
#X obj 683 602 -;
#X obj 635 500 f;
#X obj 802 462 t b f f;
#X obj 683 698 +;
#X obj 826 364 t b b;
#X obj 638 365 env~ 256;
#X obj 638 451 t f f;
#X obj 652 1124 line~;
#X text 1101 789 Gain reduction;
#X obj 635 825 min 1;
#X obj 638 536 moses 70;
#X obj 698 572 t f f;
#X obj 638 405 max;
#X obj 562 1130 *~;
#X obj 818 412 f \$1;
#X obj 854 412 f \$2;
#X obj 826 323 loadbang;
#X obj 638 733 t a;
#X floatatom 792 259 5 0 0 0 - - - 12;
#X text 840 86 threshold;
#X floatatom 478 394 6 0 0 0 - - - 12;
#X floatatom 478 441 6 0 0 0 - - - 12;
#X obj 771 878 == 1;
#X obj 635 878 < 1;
#X text 884 905 ms attack;
#X text 1017 971 ms release;
#X obj 562 1289 dac~;
#X obj 628 946 spigot;
#X obj 771 946 spigot;
#X obj 634 1003 pack;
#X msg 635 1077 \$1 \$2;
#X obj 826 1008 pack;
#X msg 771 1077 \$1 \$2;
#X floatatom 1174 189 9 0 0 0 - - - 12;
#X obj 562 1202 *~;
#X text 1448 99 Make up gain;
#X obj 708 1005 r attack;
#X obj 1174 226 s attack;
#X obj 906 979 r release;
#X floatatom 1291 175 11 0 0 0 - - - 12;
#X obj 1291 232 s release;
#X obj 638 1182 r makeupgain;
#X obj 1481 249 s makeupgain;
#X obj 909 1163 s~ gainreduction;
#X text 1014 99 Ratio;
#X obj 1013 283 s ratio;
#X obj 906 525 r ratio;
#X floatatom 1076 199 5 0 0 0 - - - 12;
#X obj 698 87 r Knob1 @hv_param;
#X obj 1430 70 r Knob2 @hv_param;
#X obj 1166 -74 r EncSwitch @hv_param;
#X text 953 -75 gentle saturation on make up gain;
#X floatatom 729 1037 5 0 0 0 - - - 12;
#X obj 886 41 loadbang;
#X msg 1092 125 4;
#X msg 1134 106 40;
#X msg 1258 87 160;
#X floatatom 1166 959 5 0 0 0 - - - 12;
#X obj 1166 991 - 1;
#X obj 1166 1027 abs;
#X floatatom 1166 1070 5 0 0 0 - - - 12;
#X obj 783 149 hsl 128 17 0 1 0 0 empty empty empty -2 -8 0 10 #e4e4e4 #4d4d4d #373737 0 1;
#X msg 910 87 0.7;
#X obj 1574 142 hsl 128 17 0 1 0 0 empty empty empty -2 -8 0 10 #e4e4e4 #4d4d4d #373737 0 1;
#X floatatom 1653 249 5 0 0 0 - - - 12;
#X obj 1612 192 * 10;
#X obj 801 206 * 100;
#X obj 564 175 adc~;
#X obj 1166 1141 s led2_red @hv_param;
#X obj 29 323 bng 25 250 50 0 empty empty empty 17 7 0 10 #e4e4e4 #4d4d4d #373737;
#X obj 67 323 r Button1 @hv_param;
#X obj 240 323 r Button2 @hv_param;
#X floatatom 959 1020 5 0 0 0 - - - 12;
#X obj 219 323 bng 25 250 50 0 empty empty empty 17 7 0 10 #e4e4e4 #4d4d4d #373737;
#N canvas 0 22 450 300 params 0;
#X obj 746 333 + 1;
#X floatatom 746 372 5 0 0 0 - - - 12;
#X msg 746 300 1;
#X floatatom 746 452 5 0 0 0 - - - 12;
#X obj 746 489 select 0 1 2 3;
#X msg 745 559 10;
#X floatatom 473 618 5 0 0 0 - - - 12;
#X obj 746 408 % 4;
#X msg 605 643 0;
#X msg 641 643 0;
#X msg 774 667 0;
#X msg 1036 665 0;
#X msg 700 665 1;
#X msg 731 667 0.5;
#X msg 955 665 0.5;
#X msg 899 643 0.5, f 6;
#X msg 564 643 0.7;
#X msg 817 643 0.8;
#X msg 858 643 0.8;
#X msg 997 665 0.8;
#X obj 666 919 s led1_red @hv_param;
#X obj 1084 919 s led1_blue @hv_param;
#X obj 893 919 s led1_green @hv_param;
#X obj 666 809 spigot;
#X obj 893 798 spigot;
#X obj 1084 798 spigot;
#X msg 1203 524 1;
#X obj 744 257 t b b;
#X msg 929 430 0;
#X obj 928 465 t f f;
#X obj 928 391 delay 800;
#X obj 1201 476 select 1 2 3;
#X msg 1203 430 1;
#X text 968 419 Turn leds off after 800ms;
#X text 586 558 Values we cycle through;
#X text 352 617 Value to send out;
#X text 465 690 RGB values to send to respective leds, f 18;
#X obj 434 647 s attack;
#X obj 1828 359 + 1;
#X floatatom 1828 398 5 0 0 0 - - - 12;
#X msg 1828 326 1;
#X floatatom 1828 478 5 0 0 0 - - - 12;
#X obj 1828 515 select 0 1 2 3;
#X msg 1827 585 10;
#X msg 1865 585 80;
#X msg 1907 585 160;
#X msg 1952 585 320;
#X floatatom 1555 644 5 0 0 0 - - - 12;
#X obj 1828 434 % 4;
#X msg 1687 669 0;
#X msg 1723 669 0;
#X msg 1856 693 0;
#X msg 2118 691 0;
#X msg 1782 691 1;
#X msg 1813 693 0.5;
#X msg 2037 691 0.5;
#X msg 1981 669 0.5, f 6;
#X msg 1646 669 0.7;
#X msg 1899 669 0.8;
#X msg 1940 669 0.8;
#X msg 2079 691 0.8;
#X obj 1748 835 spigot;
#X obj 1975 824 spigot;
#X obj 2166 824 spigot;
#X obj 1826 283 t b b;
#X msg 2011 456 0;
#X obj 2010 491 t f f;
#X obj 2010 417 delay 800;
#X text 2050 445 Turn leds off after 800ms;
#X text 1668 584 Values we cycle through;
#X text 1434 643 Value to send out;
#X text 1547 716 RGB values to send to respective leds, f 18;
#X obj 1541 682 s release;
#X msg 1588 438 2;
#X msg 1232 524 1;
#X text 1241 388 Turn leds on. The select is used if there are other similar parameter setting buttons to press, f 27;
#X obj 745 198 inlet;
#X obj 1826 218 inlet;
#X floatatom 2660 362 5 0 0 0 - - - 12;
#X floatatom 2660 467 5 0 0 0 - - - 12;
#X obj 2660 504 select 0 1 2 3;
#X floatatom 2387 633 5 0 0 0 - - - 12;
#X obj 2660 398 % 4;
#X msg 2519 658 0;
#X msg 2555 658 0;
#X msg 2688 682 0;
#X msg 2950 680 0;
#X msg 2614 680 1;
#X msg 2645 682 0.5;
#X msg 2869 680 0.5;
#X msg 2813 658 0.5, f 6;
#X msg 2478 658 0.7;
#X msg 2731 658 0.8;
#X msg 2772 658 0.8;
#X msg 2911 680 0.8;
#X obj 2580 934 s led1_red @hv_param;
#X obj 2998 934 s led1_blue @hv_param;
#X obj 2807 934 s led1_green @hv_param;
#X obj 2580 824 spigot;
#X obj 2807 813 spigot;
#X obj 2998 813 spigot;
#X msg 2843 445 0;
#X obj 2842 480 t f f;
#X obj 2842 406 delay 800;
#X text 2882 434 Turn leds off after 800ms;
#X text 2500 573 Values we cycle through;
#X text 2266 632 Value to send out;
#X text 2379 705 RGB values to send to respective leds, f 18;
#X obj 2659 435 abs;
#X obj 2731 266 t b b;
#X msg 2649 291 1;
#X obj 2660 323 + 1;
#X msg 2659 574 2;
#X msg 2697 574 4;
#X msg 2739 574 8;
#X msg 2784 574 16;
#X obj 2387 669 s ratio;
#X obj 2739 218 inlet;
#X msg 2448 339 3;
#X msg 1261 524 1;
#X msg 783 559 40;
#X msg 825 559 80;
#X msg 870 559 120;
#X obj 1748 945 s led1_red @hv_param;
#X obj 1975 945 s led1_green @hv_param;
#X obj 2166 945 s led1_blue @hv_param;
#X connect 0 0 1 0 32.................J.........fB.........LA....;
#X connect 1 0 7 0 32.................I.........PB.........HA....;
#X connect 2 0 0 0 32.................I....H....PB....B....HA....;
#X connect 3 0 4 0;
#X connect 4 0 5 0;
#X connect 4 1 120 0;
#X connect 4 2 121 0;
#X connect 4 3 122 0;
#X connect 5 0 6 0;
#X connect 5 0 16 0;
#X connect 5 0 8 0;
#X connect 5 0 9 0;
#X connect 6 0 37 0;
#X connect 7 0 3 0;
#X connect 7 0 0 1 48.................E....LC...PA....y....z4++++B....c9+++u....fn++++;
#X connect 8 0 24 0;
#X connect 9 0 25 0;
#X connect 10 0 25 0;
#X connect 11 0 25 0;
#X connect 12 0 23 0;
#X connect 13 0 24 0;
#X connect 14 0 23 0;
#X connect 15 0 25 0;
#X connect 16 0 23 0;
#X connect 17 0 23 0;
#X connect 18 0 24 0;
#X connect 19 0 24 0;
#X connect 23 0 20 0;
#X connect 24 0 22 0;
#X connect 25 0 21 0;
#X connect 26 0 25 1;
#X connect 26 0 24 1;
#X connect 26 0 23 1;
#X connect 27 0 2 0;
#X connect 27 0 30 0;
#X connect 27 1 32 0;
#X connect 28 0 29 0;
#X connect 29 0 25 1;
#X connect 29 0 24 1;
#X connect 29 0 23 1;
#X connect 29 1 23 0;
#X connect 29 1 24 0;
#X connect 29 1 25 0;
#X connect 30 0 28 0;
#X connect 31 0 26 0;
#X connect 31 1 74 0;
#X connect 31 2 119 0;
#X connect 32 0 31 0;
#X connect 38 0 39 0 32.................J.........fB.........LA....;
#X connect 39 0 48 0 32.................I.........PB.........HA....;
#X connect 40 0 38 0 32.................I....H....PB....B....HA....;
#X connect 41 0 42 0;
#X connect 42 0 43 0;
#X connect 42 1 44 0;
#X connect 42 2 45 0;
#X connect 42 3 46 0;
#X connect 43 0 47 0;
#X connect 43 0 57 0;
#X connect 43 0 49 0;
#X connect 43 0 50 0;
#X connect 44 0 47 0;
#X connect 44 0 53 0;
#X connect 44 0 54 0;
#X connect 44 0 51 0;
#X connect 45 0 47 0;
#X connect 45 0 58 0;
#X connect 45 0 59 0;
#X connect 45 0 56 0;
#X connect 46 0 47 0;
#X connect 46 0 55 0;
#X connect 46 0 60 0;
#X connect 46 0 52 0;
#X connect 47 0 72 0;
#X connect 48 0 41 0;
#X connect 48 0 38 1 48.................E....LC...PA....y....z4++++B....c9+++u....fn++++;
#X connect 49 0 62 0;
#X connect 50 0 63 0;
#X connect 51 0 63 0;
#X connect 52 0 63 0;
#X connect 53 0 61 0;
#X connect 54 0 62 0;
#X connect 55 0 61 0;
#X connect 56 0 63 0;
#X connect 57 0 61 0;
#X connect 58 0 61 0;
#X connect 59 0 62 0;
#X connect 60 0 62 0;
#X connect 61 0 123 0;
#X connect 62 0 124 0;
#X connect 63 0 125 0;
#X connect 64 0 40 0;
#X connect 64 0 67 0;
#X connect 64 1 73 0;
#X connect 65 0 66 0;
#X connect 66 0 63 1;
#X connect 66 0 62 1;
#X connect 66 0 61 1;
#X connect 66 1 61 0;
#X connect 66 1 62 0;
#X connect 66 1 63 0;
#X connect 67 0 65 0;
#X connect 73 0 31 0;
#X connect 74 0 61 1;
#X connect 74 0 62 1;
#X connect 74 0 63 1;
#X connect 76 0 27 0;
#X connect 77 0 64 0;
#X connect 78 0 82 0 32.................I.........PB.........HA....;
#X connect 79 0 80 0;
#X connect 80 0 112 0;
#X connect 80 1 113 0;
#X connect 80 2 114 0;
#X connect 80 3 115 0;
#X connect 81 0 116 0;
#X connect 82 0 108 0;
#X connect 82 0 111 1 48.................E....LC...PA....y....z4++++B....c9+++u....fn++++;
#X connect 83 0 99 0;
#X connect 84 0 100 0;
#X connect 85 0 100 0;
#X connect 86 0 100 0;
#X connect 87 0 98 0;
#X connect 88 0 99 0;
#X connect 89 0 98 0;
#X connect 90 0 100 0;
#X connect 91 0 98 0;
#X connect 92 0 98 0;
#X connect 93 0 99 0;
#X connect 94 0 99 0;
#X connect 98 0 95 0;
#X connect 99 0 97 0;
#X connect 100 0 96 0;
#X connect 101 0 102 0;
#X connect 102 0 100 1;
#X connect 102 0 99 1;
#X connect 102 0 98 1;
#X connect 102 1 98 0;
#X connect 102 1 99 0;
#X connect 102 1 100 0;
#X connect 103 0 101 0;
#X connect 108 0 79 0;
#X connect 109 0 103 0;
#X connect 109 0 110 0;
#X connect 109 1 118 0;
#X connect 110 0 111 0;
#X connect 111 0 78 0 32.................J.........fB.........LA....;
#X connect 112 0 81 0;
#X connect 112 0 91 0;
#X connect 112 0 83 0;
#X connect 112 0 84 0;
#X connect 113 0 81 0;
#X connect 113 0 87 0;
#X connect 113 0 88 0;
#X connect 113 0 85 0;
#X connect 114 0 81 0;
#X connect 114 0 92 0;
#X connect 114 0 93 0;
#X connect 114 0 90 0;
#X connect 115 0 81 0;
#X connect 115 0 89 0;
#X connect 115 0 94 0;
#X connect 115 0 86 0;
#X connect 117 0 109 0;
#X connect 118 0 31 0;
#X connect 119 0 100 1;
#X connect 119 0 99 1;
#X connect 119 0 98 1;
#X connect 120 0 6 0;
#X connect 120 0 12 0;
#X connect 120 0 13 0;
#X connect 120 0 10 0;
#X connect 121 0 6 0;
#X connect 121 0 17 0;
#X connect 121 0 18 0;
#X connect 121 0 15 0;
#X connect 122 0 6 0;
#X connect 122 0 14 0;
#X connect 122 0 19 0;
#X connect 122 0 11 0;
#X restore 156 415 pd params;
#X text 29 275 Set attack \, release and ratio;
#X obj 400 323 r EncSwitch @hv_param;
#X obj 416 292 bng 25 250 50 0 empty empty empty 17 7 0 10 #e4e4e4 #4d4d4d #373737;
#X floatatom 956 563 5 0 0 0 - - - 12;
#X connect 0 0 1 0;
#X connect 1 0 2 0;
#X connect 2 0 3 0;
#X connect 2 1 4 1;
#X connect 3 0 4 0;
#X connect 4 0 18 0 48.................Q....T7+++eD....E++++S5+++uf9+++j9+++Kn+++er++++;
#X connect 4 0 66 0;
#X connect 6 0 7 0;
#X connect 6 1 8 1;
#X connect 7 0 8 0;
#X connect 8 0 12 0;
#X connect 9 0 7 0;
#X connect 10 0 19 0;
#X connect 11 0 10 0 32.................G....z0++++A....c8+++a.....;
#X connect 11 1 19 1 32.................O....z2++++C....88+++aC....;
#X connect 11 2 20 0 32.................7....v2+++OO....78+++qE....;
#X connect 12 0 26 0;
#X connect 13 0 23 0;
#X connect 13 1 24 0;
#X connect 14 0 21 0;
#X connect 14 0 29 0;
#X connect 15 0 10 0;
#X connect 15 1 0 1 64.................K....7E...vB....eA...HB...P6....h....zN...PH....6E...DB...vdA...ED....;
#X connect 16 0 22 1;
#X connect 16 0 52 0;
#X connect 18 0 32 0;
#X connect 18 0 31 0;
#X connect 18 0 36 0;
#X connect 18 0 37 0;
#X connect 19 0 26 0;
#X connect 19 1 9 0;
#X connect 20 0 9 1;
#X connect 20 1 12 1;
#X connect 21 0 15 0;
#X connect 21 0 30 0;
#X connect 22 0 43 0;
#X connect 23 0 11 0;
#X connect 24 0 6 0;
#X connect 25 0 13 0;
#X connect 26 0 0 0 48......................HT.........BE...r8+++udA...a++++qW....6++++;
#X connect 27 0 11 0;
#X connect 31 0 37 1;
#X connect 32 0 36 1;
#X connect 36 0 38 0;
#X connect 37 0 40 0;
#X connect 38 0 39 0;
#X connect 39 0 16 0;
#X connect 40 0 41 0;
#X connect 41 0 16 0;
#X connect 42 0 46 0;
#X connect 43 0 35 0;
#X connect 43 0 35 1;
#X connect 45 0 38 1;
#X connect 45 0 61 0;
#X connect 47 0 40 1;
#X connect 47 0 81 0;
#X connect 48 0 49 0;
#X connect 50 0 43 1;
#X connect 55 0 6 0;
#X connect 55 0 87 0;
#X connect 56 0 54 0;
#X connect 57 0 70 0;
#X connect 58 0 72 0;
#X connect 62 0 71 0;
#X connect 62 0 63 0;
#X connect 62 0 64 0;
#X connect 62 0 65 0;
#X connect 63 0 56 0;
#X connect 64 0 42 0;
#X connect 65 0 48 0;
#X connect 66 0 67 0;
#X connect 67 0 68 0;
#X connect 68 0 69 0;
#X connect 69 0 77 0;
#X connect 70 0 75 0;
#X connect 71 0 70 0;
#X connect 72 0 74 0;
#X connect 74 0 51 0;
#X connect 74 0 73 0;
#X connect 75 0 27 0;
#X connect 76 0 14 0;
#X connect 76 0 22 0;
#X connect 78 0 83 0;
#X connect 79 0 83 0;
#X connect 80 0 83 1;
#X connect 82 0 83 1;
#X connect 85 0 83 2;
#X connect 86 0 83 2;
