#N canvas 827 239 400 320 12;
#X obj 454 964 *~;
#X obj 497 925 line~;
#X obj 451 1208 delwrite~ dbuffer 8000;
#X obj 765 602 tgl 23 0 empty empty empty 17 7 0 10 #e4e4e4 #4d4d4d #373737 0 1;
#X obj 764 643 select 1;
#X msg 477 1153 clear;
#X obj 842 985 delread~ dbuffer 1000;
#X obj 842 898 float;
#X obj 849 783 timer;
#X obj 849 820 t b f;
#X obj 395 1292 dac~;
#X obj 844 1163 *~;
#X obj 581 234 vsl 17 128 0 1 0 0 empty empty empty 0 -9 0 10 #e4e4e4 #4d4d4d #373737 0 1;
#X obj 690 1163 *~;
#X obj 46 165 vsl 17 128 0 1 0 0 empty empty empty 0 -9 0 10 #e4e4e4 #4d4d4d #373737 0 1;
#X floatatom 920 865 8 0 0 0 - - - 16;
#X obj 541 591 + 1;
#X obj 541 626 % 2;
#X floatatom 543 660 5 0 0 0 - - - 12;
#X msg 544 556 1;
#X obj 1046 522 metro;
#X obj 543 745 select 0;
#X obj 497 831 bng 25 250 50 0 empty empty empty 17 7 0 10 #e4e4e4 #4d4d4d #373737;
#X obj 555 831 bng 25 250 50 0 empty empty empty 17 7 0 10 #e4e4e4 #4d4d4d #373737;
#X obj 796 359 s reset;
#X obj 956 392 r reset;
#X msg 958 430 0;
#X obj 477 1123 r reset;
#X obj 495 791 spigot;
#X obj 472 745 tgl 25 0 empty empty empty 17 7 0 10 #e4e4e4 #4d4d4d #373737 0 1;
#X text 706 285 Reset;
#X obj 555 791 spigot;
#X obj 632 745 tgl 25 0 empty empty empty 17 7 0 10 #e4e4e4 #4d4d4d #373737 0 1;
#X obj 472 542 r reset;
#X obj 813 691 t b b b b;
#X obj 735 691 t b b b;
#X text 607 191 Volume;
#X obj 920 898 s looplen;
#X obj 1066 486 r looplen;
#X obj 903 925 s startmetro;
#X obj 1118 392 r startmetro;
#X obj 732 1073 float;
#X obj 874 1062 float;
#X floatatom 732 1108 5 0 0 0 - - - 12;
#X floatatom 874 1096 5 0 0 0 - - - 12;
#X obj 1213 1323 delread~ dbuffer 1000;
#X obj 1116 1401 *~;
#X obj 1498 891 r reset;
#X obj 1211 463 / 4;
#X obj 1190 506 metro;
#X obj 1498 964 tgl 25 0 empty empty empty 17 7 0 10 #e4e4e4 #4d4d4d #373737 0 1;
#X obj 1116 1314 float;
#X msg 1501 923 1;
#X obj 1233 1099 r looplen;
#X obj 1233 1178 / 16;
#X obj 1213 1227 *;
#X floatatom 1213 1276 5 0 0 0 - - - 12;
#X obj 1213 1013 + 1;
#X text 1260 460 Visual metronome - into 4, f 17;
#X text 670 674 start recording, f 9;
#X text 903 675 stop recording, f 9;
#X msg 474 599 1;
#X obj 401 577 t b b;
#X obj 188 259 tgl 25 0 empty empty empty 17 7 0 10 #e4e4e4 #4d0205 #373737 0 1;
#X obj 42 384 s feedback;
#X obj 1190 556 s subdiv;
#X obj 1099 556 s loop;
#X obj 255 186 bng 25 250 50 0 empty empty empty 17 7 0 10 #e4e4e4 #4d4d4d #373737;
#X obj 188 186 bng 25 250 50 0 empty empty empty 17 7 0 10 #e4e4e4 #4d4d4d #373737;
#X obj 255 159 r subdiv;
#X obj 188 159 r loop;
#X text 169 224 Recording;
#X text 22 128 Feedback;
#X obj 732 1040 r feedback;
#X obj 577 392 s volume;
#X obj 874 1029 r volume;
#X obj 374 882 s show_rec_start;
#X obj 632 925 s show_rec_stop;
#X obj 255 392 r show_rec_start;
#X obj 227 463 r show_rec_stop;
#X obj 307 192 r overdub_status;
#X obj 280 253 tgl 25 0 empty empty empty 17 7 0 10 #e4e4e4 #4d4d4d #373737 0 1;
#X text 250 225 Overdub status;
#X msg 1337 1132 12;
#X msg 1304 1132 16;
#X floatatom 1245 1050 5 0 0 0 - - - 12;
#X floatatom 1293 1229 5 0 0 0 - - - 12;
#X obj 1304 957 random 2;
#X obj 1304 1005 select 0;
#X text 1004 1163 Reduce the feedback for the random delays by a factor, f 20;
#X floatatom 1056 1340 5 0 0 0 - - - 12;
#X obj 1492 1163 line~;
#X obj 1499 1018 select 0;
#X obj 1209 1444 *~;
#X text 1611 1088 feedback vol to 0 when no longer overdubbing - a kind of freeze, f 13;
#X text 1371 1116 Division by 12 or 16 for some poly-rhythm, f 10;
#X text 1112 954 Every loop \, trigger a delay at a random multiple of notes, f 14;
#X obj 227 865 adc~;
#X obj -18 107 r Knob2 @hv_param;
#X obj 633 39 r EncSwitch @hv_param;
#X obj -154 107 r Knob1 @hv_param;
#X obj -141 19 r Button1 @hv_param;
#X text 22 3 Start/ stop;
#X obj 33 34 bng 25 250 50 0 empty empty empty 17 7 0 10 #e4e4e4 #4d4d4d #373737;
#X obj 179 562 select 1;
#X obj 50 615 r led_start;
#X obj 115 643 r led_stop;
#N canvas 733 172 450 300 led_control 0;
#X obj 277 165 s led1_green @hv_param;
#X obj 68 165 s led1_red @hv_param;
#X msg 113 112 0.7;
#X msg 178 112 0;
#X msg 287 112 0.7;
#X msg 236 112 0;
#X obj 135 57 inlet;
#X obj 266 57 inlet;
#X text 85 29 led 1 red on/ green off;
#X text 259 29 led 1 green on/ red off;
#X msg 541 122 0.7;
#X msg 593 122 0;
#X obj 499 165 s led2_red @hv_param;
#X obj 541 73 inlet;
#X text 541 41 led 2 red on;
#X obj 654 73 inlet;
#X text 654 41 led 2 red off;
#X msg 844 148 0;
#X msg 780 148 0.7;
#X obj 842 115 del 1000;
#X obj 780 247 s led2_blue @hv_param;
#X obj 913 185 s led1_green @hv_param;
#X obj 871 221 s led1_red @hv_param;
#X obj 780 78 inlet;
#X text 771 16 reset \; led 2 blue on for 800msecs \; led 1 red and green off, f 25;
#X connect 2 0 1 0;
#X connect 3 0 0 0;
#X connect 4 0 0 0;
#X connect 5 0 1 0;
#X connect 6 0 2 0;
#X connect 6 0 3 0;
#X connect 7 0 5 0;
#X connect 7 0 4 0;
#X connect 10 0 12 0;
#X connect 11 0 12 0;
#X connect 13 0 10 0;
#X connect 15 0 11 0;
#X connect 17 0 20 0;
#X connect 17 0 22 0;
#X connect 17 0 21 0;
#X connect 18 0 20 0;
#X connect 19 0 17 0;
#X connect 23 0 18 0;
#X connect 23 0 19 0;
#X restore 149 721 pd led_control;
#X obj 275 679 r reset;
#X text 20 719 All of the led control in one sub-patch, f 17;
#X obj 749 882 s led_start;
#X obj 944 763 s led_stop;
#X obj -141 71 s start_stop;
#X obj 724 476 r start_stop;
#X obj 362 156 s overdub_toggle;
#X obj 401 476 r overdub_toggle;
#X text 115 3 Overdub;
#X obj 126 34 bng 25 250 50 0 empty empty empty 17 7 0 10 #e4e4e4 #4d4d4d #373737;
#X obj 403 104 r Button2 @hv_param;
#X obj 50 550 select 1;
#X obj 496 159 s turnoff;
#X obj 1213 957 random 7;
#X obj 1383 1050 t b b;
#X obj 1304 1065 t b b;
#X obj 1358 669 + 1;
#X floatatom 1358 700 5 0 0 0 - - - 12;
#X obj 1330 583 bng 25 250 50 0 empty empty empty 17 7 0 10 #e4e4e4 #4d4d4d #373737;
#X msg 1361 629 1;
#X obj 1358 791 tgl 25 0 empty empty empty 17 7 0 10 #e4e4e4 #4d4d4d #373737 0 1;
#X obj 1336 840 spigot;
#X obj 1336 876 bng 25 250 50 0 empty empty empty 17 7 0 10 #e4e4e4 #4d4d4d #373737;
#X msg 1428 613 0;
#X msg 1438 749 1;
#X obj 1428 562 r reset;
#X obj 1358 749 select 12;
#X msg 368 849 1;
#X msg 658 886 0;
#X msg 1490 1091 0 500;
#X msg 1550 1091 1 500;
#X msg 497 882 1 100;
#X msg 556 882 0 100;
#X obj 1004 1227 r randfeedback;
#X obj 577 144 loadbang;
#X msg 580 186 1;
#X obj 255 34 bng 25 250 50 0 empty empty empty 17 7 0 10 #e4e4e4 #4d4d4d #373737;
#X obj 796 82 t b b b;
#X msg 916 216 1;
#X msg 851 216 0;
#X obj 796 130 t b b;
#X obj 796 173 timer;
#X obj 870 173 delay 501;
#X obj 796 257 sel 1;
#X obj 796 308 bng 25 250 50 0 empty empty empty 17 7 0 10 #e4e4e4 #4d4d4d #373737;
#X obj 879 308 bng 25 250 50 0 empty empty empty 17 7 0 10 #e4e4e4 #4d4d4d #373737;
#X obj 879 257 spigot;
#X obj 796 217 < 750;
#X text 922 307 single click;
#X text 707 314 double click;
#X obj 126 169 vsl 17 128 0 0.95 0 0 empty empty empty 0 -9 0 10 #e4e4e4 #4d4d4d #373737 0 1;
#X obj 111 463 s randfeedback;
#X text 115 113 Rand delay feedback, f 10;
#X obj 142 336 * 0.6;
#X obj 42 332 * 0.8;
#X obj 436 389 s overdub_status;
#X msg 463 281 1;
#X obj 436 322 tgl 25 0 empty empty empty 17 7 0 10 #e4e4e4 #4d4d4d #373737 0 1;
#X obj 467 234 r reset;
#X obj 860 359 s reset_rand_delay;
#X obj 1437 506 r reset_rand_delay;
#X text 204 3 Toggle rand delay (single click);
#X floatatom -22 353 5 0 0 0 - - - 12;
#X floatatom 153 408 5 0 0 0 - - - 12;
#X text 290 40 Reset (double click);
#X msg 1008 431 stop;
#X connect 0 0 2 0;
#X connect 1 0 0 1;
#X connect 3 0 4 0;
#X connect 4 0 35 0;
#X connect 4 1 34 0;
#X connect 5 0 2 0;
#X connect 6 0 11 0;
#X connect 6 0 13 0 32.................b....j1+++OG....o8++++I....;
#X connect 7 0 6 0;
#X connect 8 0 9 0;
#X connect 9 0 39 0 32.................q....zC...vJ....8....XE....;
#X connect 9 1 7 1;
#X connect 9 1 15 0;
#X connect 11 0 10 0 32.................6....D6++++N....w9+++2E....;
#X connect 11 0 10 1 32.................GA...D7++++Q....A++++2E....;
#X connect 12 0 74 0;
#X connect 13 0 2 0 48.................K....nw++++B....Z7+++mA...fD++++Y....Hw+++uF....;
#X connect 14 0 162 0;
#X connect 15 0 37 0;
#X connect 16 0 17 0;
#X connect 17 0 18 0;
#X connect 18 0 21 0;
#X connect 18 0 16 1 48.................I....3B...PB....t....P5++++B....j9+++u....Pp++++;
#X connect 19 0 16 0;
#X connect 20 0 66 0;
#X connect 20 0 19 0 32.................H....ff+++OB....H3++++.....;
#X connect 20 0 126 0 48.................s....zN...PK....sC...rA....GA...a....vQ...fJ....;
#X connect 21 0 28 0;
#X connect 21 1 31 0;
#X connect 22 0 139 0;
#X connect 22 0 135 0;
#X connect 23 0 140 0;
#X connect 23 0 136 0;
#X connect 25 0 26 0;
#X connect 25 0 173 0;
#X connect 26 0 3 0 32.................+....Dz++++O....A8+++mI....;
#X connect 27 0 5 0;
#X connect 28 0 22 0;
#X connect 29 0 28 1;
#X connect 29 0 104 0 48.................L....f3+++OC....H9+++Sx+++O29+++j7+++ys+++eL++++;
#X connect 31 0 23 0;
#X connect 32 0 31 1;
#X connect 33 0 61 0;
#X connect 34 0 111 0;
#X connect 34 1 7 0 32.................2A...3....vc....N....3N....;
#X connect 34 2 140 0 48.................V....Tv+++uE....E7+++GJ...P39+++gB...Dt+++Oq....;
#X connect 34 3 8 1;
#X connect 35 0 139 0 32.................ZB...Lw+++ul....S7+++yJ....;
#X connect 35 1 110 0;
#X connect 35 2 8 0 32.................k....3D...PI....NA...jD....;
#X connect 38 0 20 1;
#X connect 38 0 48 0 48.................I.....E...PB....PA...r7+++ej....K++++GI...v0++++;
#X connect 40 0 49 0 32.................b....HB....G....h.....G....;
#X connect 40 0 20 0 32.................b....L4+++OG....S9+++CH....;
#X connect 41 0 43 0 32.................H..........B..........A....;
#X connect 41 0 13 1 32.................y....H9++++L....h++++eD....;
#X connect 42 0 44 0;
#X connect 42 0 11 1 32.................f....r6+++OH....69++++C....;
#X connect 45 0 46 0 32.................X....T4+++OF....U9+++iB....;
#X connect 46 0 93 0;
#X connect 47 0 52 0;
#X connect 48 0 49 1 32.................J....f8+++uB....X++++iD....;
#X connect 49 0 65 0;
#X connect 50 0 92 0;
#X connect 51 0 46 1;
#X connect 51 0 90 0;
#X connect 52 0 50 0;
#X connect 53 0 54 0;
#X connect 54 0 55 1;
#X connect 54 0 86 0;
#X connect 55 0 56 0;
#X connect 56 0 45 0;
#X connect 57 0 85 0;
#X connect 57 0 55 0;
#X connect 61 0 29 0;
#X connect 61 0 18 0 32.................N....fD...fC....HA...nB....;
#X connect 61 0 32 0 64......................DJ.........gB....B...Pn....f....DJ....L....gB....C...Pn....+A....;
#X connect 62 0 23 0 32.................cC...nI...P2....ZB...rN....;
#X connect 62 1 29 0 32.................+A...nC...ve....5....TI....;
#X connect 62 1 32 0 48.................hA...DI...fX....QB...LF...f1....iA...nM...Pk....;
#X connect 63 0 119 0;
#X connect 69 0 67 0;
#X connect 70 0 68 0;
#X connect 73 0 41 0 32.................G.........vA.........3.....;
#X connect 75 0 42 0;
#X connect 78 0 63 0 48.................T++++G.....0++++A....n0+++uu++++Z8+++66+++eZ++++;
#X connect 79 0 63 0 64.................S8+++2+++++T++++8++++Oz+++e+++++C8+++2++++uH++++V++++Kx+++u0++++s7+++C;
#X connect 80 0 81 0;
#X connect 83 0 54 1;
#X connect 84 0 54 1;
#X connect 87 0 88 0;
#X connect 88 0 123 0;
#X connect 88 1 122 0;
#X connect 91 0 93 1;
#X connect 92 0 137 0;
#X connect 92 1 138 0;
#X connect 93 0 2 0;
#X connect 97 0 0 0;
#X connect 97 0 10 0 48.................BF...DB...ffA...g....LX....p....CF...fJ....lA...;
#X connect 97 0 10 1 32.................NF...fK...fiA...3B...fY....;
#X connect 98 0 158 0;
#X connect 99 0 145 0;
#X connect 100 0 14 0;
#X connect 101 0 112 0;
#X connect 103 0 112 0;
#X connect 104 0 107 2;
#X connect 104 1 107 3;
#X connect 105 0 107 0;
#X connect 106 0 107 1;
#X connect 108 0 107 4;
#X connect 113 0 3 0;
#X connect 115 0 62 0;
#X connect 117 0 114 0;
#X connect 117 0 120 0;
#X connect 117 0 165 0;
#X connect 118 0 114 0;
#X connect 118 0 120 0;
#X connect 119 0 107 0;
#X connect 119 1 107 1;
#X connect 121 0 57 0;
#X connect 122 0 54 0;
#X connect 122 1 83 0;
#X connect 123 0 54 0;
#X connect 123 1 84 0;
#X connect 124 0 125 0;
#X connect 125 0 124 1 48.................J....7B...fB....u....X7++++B....F++++u.....z++++;
#X connect 125 0 134 0;
#X connect 126 0 127 0;
#X connect 126 0 129 0 32.................vC...vA....7....b....PP....;
#X connect 127 0 124 0;
#X connect 128 0 129 1;
#X connect 129 0 130 0;
#X connect 130 0 121 0;
#X connect 130 0 87 0;
#X connect 131 0 125 0 32.................9....z6+++uO....89+++SD....;
#X connect 131 0 132 0 32.................6....j....vN....I....TG....;
#X connect 132 0 128 0 32.................L....P6+++OC....z9+++eA....;
#X connect 133 0 131 0;
#X connect 134 0 128 0;
#X connect 135 0 76 0;
#X connect 136 0 77 0;
#X connect 137 0 91 0;
#X connect 138 0 91 0;
#X connect 139 0 1 0;
#X connect 140 0 1 0;
#X connect 141 0 51 0;
#X connect 142 0 143 0;
#X connect 143 0 12 0;
#X connect 144 0 145 0;
#X connect 145 0 148 0;
#X connect 145 1 150 0;
#X connect 145 2 146 0;
#X connect 146 0 154 1;
#X connect 147 0 154 1;
#X connect 148 0 149 0;
#X connect 148 1 149 1;
#X connect 149 0 155 0;
#X connect 150 0 154 0;
#X connect 151 0 147 0;
#X connect 151 0 152 0;
#X connect 152 0 24 0;
#X connect 153 0 167 0;
#X connect 154 0 153 0;
#X connect 155 0 151 0;
#X connect 158 0 161 0;
#X connect 161 0 159 0;
#X connect 161 0 171 0;
#X connect 162 0 64 0;
#X connect 162 0 170 0;
#X connect 164 0 165 0;
#X connect 165 0 163 0;
#X connect 166 0 164 0;
#X connect 168 0 131 0;
#X connect 173 0 49 0;
#X connect 173 0 20 0;
