#N canvas 827 239 400 320 12;
#X obj 454 964 *~;
#X obj 497 925 line~;
#X obj 451 1208 delwrite~ dbuffer 8000;
#X msg 477 1153 clear;
#X obj 842 985 delread~ dbuffer 1000;
#X obj 842 898 float;
#X obj 395 1292 dac~;
#X obj 844 1163 *~;
#X obj 581 244 vsl 17 128 0 1 0 0 empty empty empty 0 -9 0 10 #e4e4e4 #4d4d4d #373737 0 1;
#X obj 690 1163 *~;
#X obj 22 171 vsl 17 128 0 1 0 0 empty empty empty 0 -9 0 10 #e4e4e4 #4d4d4d #373737 0 1;
#X obj 541 591 + 1;
#X obj 541 626 % 2;
#X floatatom 543 660 5 0 0 0 - - - 12;
#X msg 544 556 1;
#X obj 543 745 select 0;
#X obj 497 831 bng 25 250 50 0 empty empty empty 17 7 0 10 #e4e4e4 #4d4d4d #373737;
#X obj 555 831 bng 25 250 50 0 empty empty empty 17 7 0 10 #e4e4e4 #4d4d4d #373737;
#X obj 785 171 r reset;
#X msg 787 209 0;
#X obj 477 1123 r reset;
#X obj 495 791 spigot;
#X obj 472 745 tgl 25 0 empty empty empty 17 7 0 10 #e4e4e4 #4d4d4d #373737 0 1;
#X obj 555 791 spigot;
#X obj 632 745 tgl 25 0 empty empty empty 17 7 0 10 #e4e4e4 #4d4d4d #373737 0 1;
#X obj 472 542 r reset;
#X text 607 186 Volume;
#X obj 732 1073 float;
#X obj 874 1062 float;
#X floatatom 732 1108 5 0 0 0 - - - 12;
#X floatatom 874 1096 5 0 0 0 - - - 12;
#X obj 1392 1183 delread~ dbuffer 1000;
#X obj 1286 1296 *~;
#X obj 1668 786 r reset;
#X obj 1040 242 / 4;
#X obj 1668 859 tgl 25 0 empty empty empty 17 7 0 10 #e4e4e4 #4d4d4d #373737 0 1;
#X obj 1295 1172 float;
#X msg 1671 818 1;
#X obj 1412 959 r looplen;
#X obj 1412 1038 / 16;
#X obj 1392 1087 *;
#X floatatom 1392 1136 5 0 0 0 - - - 12;
#X obj 1392 873 + 1;
#X msg 474 599 1;
#X obj 401 577 t b b;
#X obj 183 275 tgl 25 0 empty empty empty 17 7 0 10 #e4e4e4 #4d0205 #373737 0 1;
#X obj 42 384 s feedback;
#X obj 1019 335 s subdiv;
#X obj 928 335 s loop;
#X obj 250 202 bng 25 250 50 0 empty empty empty 17 7 0 10 #e4e4e4 #4d4d4d #373737;
#X obj 183 202 bng 25 250 50 0 empty empty empty 17 7 0 10 #e4e4e4 #4d4d4d #373737;
#X obj 250 175 r subdiv;
#X obj 183 175 r loop;
#X text 164 235 Recording;
#X text 13 132 Feedback;
#X obj 732 1040 r feedback;
#X obj 577 392 s volume;
#X obj 874 1029 r volume;
#X obj 374 882 s show_rec_start;
#X obj 617 925 s show_rec_stop;
#X obj 255 392 r show_rec_start;
#X obj 227 463 r show_rec_stop;
#X obj 302 208 r overdub_status;
#X obj 266 275 tgl 25 0 empty empty empty 17 7 0 10 #e4e4e4 #4d4d4d #373737 0 1;
#X text 245 236 Overdub status;
#X msg 1507 1027 12;
#X msg 1483 992 16;
#X floatatom 1424 910 5 0 0 0 - - - 12;
#X floatatom 1472 1089 5 0 0 0 - - - 12;
#X obj 1483 817 random 2;
#X obj 1483 865 select 0;
#X floatatom 1239 1219 5 0 0 0 - - - 12;
#X obj 1662 1058 line~;
#X obj 1669 913 select 0;
#X obj 1379 1339 *~;
#X text 1781 978 feedback vol to 0 when no longer overdubbing - a kind of freeze, f 13;
#X text 1541 1006 Division by 12 or 16 for some poly-rhythm, f 10;
#X text 1291 809 Every loop \, trigger a delay at a random multiple of notes, f 14;
#X obj 227 865 adc~;
#X obj -18 107 r Knob2 @hv_param;
#X obj 420 24 r EncSwitch @hv_param;
#X obj -154 107 r Knob1 @hv_param;
#X obj -141 19 r Button1 @hv_param;
#X text 22 -2 Start/ stop;
#X obj 33 34 bng 25 250 50 0 empty empty empty 17 7 0 10 #e4e4e4 #4d4d4d #373737;
#X obj 179 562 select 1;
#X obj 50 615 r led_start;
#X obj 115 643 r led_stop;
#N canvas 733 172 450 300 led_control 0;
#X obj 277 165 s led1_green @hv_param;
#X obj 68 165 s led1_red @hv_param;
#X msg 113 112 0.7;
#X msg 178 112 0;
#X msg 287 112 0.7;
#X msg 236 112 0;
#X obj 135 57 inlet;
#X obj 266 57 inlet;
#X text 85 29 led 1 red on/ green off;
#X text 259 29 led 1 green on/ red off;
#X msg 541 122 0.7;
#X msg 593 122 0;
#X obj 499 165 s led2_red @hv_param;
#X obj 541 73 inlet;
#X text 541 41 led 2 red on;
#X obj 654 73 inlet;
#X text 654 41 led 2 red off;
#X msg 844 148 0;
#X msg 780 148 0.7;
#X obj 842 115 del 1000;
#X obj 780 247 s led2_blue @hv_param;
#X obj 913 185 s led1_green @hv_param;
#X obj 871 221 s led1_red @hv_param;
#X obj 780 78 inlet;
#X text 771 16 reset \; led 2 blue on for 800msecs \; led 1 red and green off, f 25;
#X connect 2 0 1 0;
#X connect 3 0 0 0;
#X connect 4 0 0 0;
#X connect 5 0 1 0;
#X connect 6 0 2 0;
#X connect 6 0 3 0;
#X connect 7 0 5 0;
#X connect 7 0 4 0;
#X connect 10 0 12 0;
#X connect 11 0 12 0;
#X connect 13 0 10 0;
#X connect 15 0 11 0;
#X connect 17 0 20 0;
#X connect 17 0 22 0;
#X connect 17 0 21 0;
#X connect 18 0 20 0;
#X connect 19 0 17 0;
#X connect 23 0 18 0;
#X connect 23 0 19 0;
#X restore 149 721 pd led_control;
#X obj 275 679 r reset;
#X text 20 714 All of the led control in one sub-patch, f 17;
#X obj 698 804 s led_start;
#X obj -141 71 s start_stop;
#X obj 733 15 r start_stop;
#X obj 362 156 s overdub_toggle;
#X obj 401 476 r overdub_toggle;
#X text 115 -2 Overdub;
#X obj 126 34 bng 25 250 50 0 empty empty empty 17 7 0 10 #e4e4e4 #4d4d4d #373737;
#X obj 403 104 r Button2 @hv_param;
#X obj 50 550 select 1;
#X obj 496 159 s turnoff;
#X obj 1392 817 random 7;
#X obj 1553 945 t b b;
#X obj 1483 925 t b b;
#X obj 1025 523 + 1;
#X floatatom 1025 554 5 0 0 0 - - - 12;
#X obj 997 437 bng 25 250 50 0 empty empty empty 17 7 0 10 #e4e4e4 #4d4d4d #373737;
#X msg 1028 483 1;
#X obj 1025 645 tgl 25 0 empty empty empty 17 7 0 10 #e4e4e4 #4d4d4d #373737 0 1;
#X obj 997 691 spigot;
#X obj 997 730 bng 25 250 50 0 empty empty empty 17 7 0 10 #e4e4e4 #4d4d4d #373737;
#X msg 1093 483 0;
#X msg 1105 603 1;
#X obj 1130 443 r reset;
#X obj 1025 603 select 12;
#X msg 368 849 1;
#X msg 619 882 0;
#X msg 1660 986 0 500;
#X msg 1720 986 1 500;
#X msg 497 882 1 100;
#X msg 556 882 0 100;
#X obj 1264 1123 r randfeedback;
#X obj 577 144 loadbang;
#X msg 580 186 1;
#X obj 214 37 bng 25 250 50 0 empty empty empty 17 7 0 10 #e4e4e4 #4d4d4d #373737;
#X obj 100 171 vsl 17 128 0 0.95 0 0 empty empty empty 0 -9 0 10 #e4e4e4 #4d4d4d #373737 0 1;
#X obj 111 463 s randfeedback;
#X text 86 124 Rand delay feedback, f 10;
#X obj 122 332 * 0.6;
#X obj 42 332 * 0.8;
#X obj -146 354 s overdub_status;
#X msg -119 246 1;
#X obj -146 287 tgl 25 0 empty empty empty 17 7 0 10 #e4e4e4 #4d4d4d #373737 0 1;
#X obj -115 199 r reset;
#X obj 1093 416 r reset_rand_delay;
#X text 185 -2 Toggle rand delay (single click);
#X obj 950 15 bng 25 250 50 0 empty empty empty 17 7 0 10 #e4e4e4 #4d4d4d #373737;
#X obj 864 15 loadbang;
#X obj 834 213 bng 25 250 50 0 empty empty empty 17 7 0 10 #e4e4e4 #4d4d4d #373737;
#X floatatom 1110 296 5 0 0 0 - - - 12;
#X obj 875 301 metro;
#X obj 1019 285 metro;
#X obj 733 56 t b b b;
#X floatatom 899 928 5 0 0 0 - - - 12;
#X obj 855 125 s looplen;
#X obj 855 818 r looplen;
#X text 1089 234 Visual metronome - pulse, f 17;
#N canvas 733 172 450 300 clicks 0;
#X obj 796 359 s reset;
#X obj 796 82 t b b b;
#X msg 916 216 1;
#X msg 851 216 0;
#X obj 796 130 t b b;
#X obj 796 173 timer;
#X obj 870 173 delay 501;
#X obj 796 257 sel 1;
#X obj 796 308 bng 25 250 50 0 empty empty empty 17 7 0 10 #e4e4e4 #4d4d4d #373737;
#X obj 879 308 bng 25 250 50 0 empty empty empty 17 7 0 10 #e4e4e4 #4d4d4d #373737;
#X obj 879 257 spigot;
#X obj 796 217 < 750;
#X text 922 304 single click;
#X text 707 311 double click;
#X obj 860 359 s reset_rand_delay;
#X obj 633 39 inlet;
#X connect 1 0 4 0;
#X connect 1 1 6 0;
#X connect 1 2 2 0;
#X connect 2 0 10 1;
#X connect 3 0 10 1;
#X connect 4 0 5 0;
#X connect 4 1 5 1;
#X connect 5 0 11 0;
#X connect 6 0 10 0;
#X connect 7 0 3 0;
#X connect 7 0 8 0;
#X connect 8 0 0 0;
#X connect 9 0 14 0;
#X connect 10 0 9 0;
#X connect 11 0 7 0;
#X connect 15 0 1 0;
#X restore 420 75 pd clicks;
#N canvas 733 172 450 300 calc_looplen 0;
#X text 999 103 BPM;
#X text 1073 103 Beats per bar;
#X text 1196 103 Bars;
#X floatatom 1086 294 7 0 0 0 - - - 16;
#X text 960 353 Loop length in ms;
#X obj 1076 168 *;
#X obj 1086 217 /;
#X obj 1086 255 * 60000;
#X msg 1077 127 4;
#X obj 1089 68 t b b;
#X msg 1196 129 1;
#X obj 1089 21 inlet;
#X obj 1184 354 outlet;
#X obj 1086 354 outlet;
#X text 1251 354 Number of pulses;
#X msg 999 129 98;
#X connect 3 0 13 0;
#X connect 5 0 6 0;
#X connect 5 0 12 0;
#X connect 6 0 7 0;
#X connect 7 0 3 0;
#X connect 8 0 5 0;
#X connect 9 0 8 0;
#X connect 9 0 15 0;
#X connect 9 1 10 0;
#X connect 10 0 5 1;
#X connect 11 0 9 0;
#X connect 15 0 6 1;
#X restore 864 56 pd calc_looplen;
#X text 1148 600 Only have 12 delay lines set, f 14;
#X obj 1590 786 r turnoff;
#X obj 164 -114 loadbang;
#X text 255 35 Reset (double click);
#X obj 1074 972 /;
#X obj 1049 865 t b b f;
#X floatatom 1074 1015 5 0 0 0 - - - 12;
#X obj 1022 816 bng 25 250 50 0 empty empty empty 17 7 0 10 #e4e4e4 #4d4d4d #373737;
#X obj 948 797 bng 25 250 50 0 empty empty empty 17 7 0 10 #e4e4e4 #4d4d4d #373737;
#X msg 1015 906 1000;
#X text 1122 1013 frequency of loop;
#N canvas 733 172 450 300 modulator 0;
#X obj 779 888 hv.filter~ lowpass 6000 2;
#X obj 752 508 snapshot~;
#X floatatom 752 552 5 0 0 0 - - - 16;
#X obj 562 454 bng 23 250 50 0 empty empty empty 17 7 0 10 #e4e4e4 #4d4d4d #373737;
#X floatatom 595 418 5 0 0 0 - - - 12;
#X obj 561 550 t b b;
#X obj 834 623 *;
#X floatatom 834 664 5 0 0 0 - - - 12;
#X obj 834 706 + 1;
#X floatatom 901 742 5 0 0 0 - - - 12;
#X obj 845 767 *;
#X floatatom 845 816 5 0 0 0 - - - 12;
#X obj 561 507 metro 250;
#X obj 752 460 osc~ 0.1;
#X text 931 663 or expr $f1 * (1 + $f2 * $f3);
#X text 792 338 rate;
#X floatatom 712 379 5 0 0 0 - - - 12;
#X obj 886 470 loadbang;
#X msg 886 508 0.5;
#X obj 1044 239 inlet~;
#X obj 779 955 outlet~;
#X obj 479 239 inlet;
#X obj 852 239 inlet;
#X obj 631 239 inlet;
#X text 631 210 LFO rate;
#X text 479 210 Cutoff freq;
#X text 852 210 Modulation width;
#X text 1041 211 Audio in;
#X floatatom 947 336 5 0 0 0 - - - 12;
#X connect 0 0 20 0;
#X connect 1 0 2 0;
#X connect 2 0 6 0;
#X connect 3 0 12 0;
#X connect 4 0 10 0;
#X connect 5 0 10 0;
#X connect 5 1 1 0;
#X connect 6 0 7 0;
#X connect 7 0 8 0;
#X connect 8 0 9 0;
#X connect 9 0 10 1;
#X connect 10 0 11 0;
#X connect 11 0 0 1;
#X connect 12 0 5 0;
#X connect 13 0 1 0;
#X connect 16 0 13 1;
#X connect 17 0 18 0;
#X connect 17 0 3 0;
#X connect 18 0 6 1;
#X connect 19 0 0 0;
#X connect 21 0 4 0;
#X connect 22 0 6 1;
#X connect 22 0 28 0;
#X connect 23 0 16 0;
#X restore 999 1399 pd modulator;
#X obj 1020 1302 r lfo_rate;
#X obj 1098 1302 r modulation_width;
#X obj 928 1302 r cutoff_freq;
#X obj 1074 1052 s lfo_rate;
#X obj 227 80 hsl 128 17 200 6000 1 0 empty empty empty -2 -8 0 10 #e4e4e4 #4d4d4d #373737 0 1;
#X text 178 131 width;
#X obj 227 133 hsl 128 17 -0 1 0 0 empty empty empty -2 -8 0 10 #e4e4e4 #4d4d4d #373737 0 1;
#X text 145 78 cutoff freq;
#X obj 221 156 s modulation_width;
#X obj 221 107 s cutoff_freq;
#X floatatom 1529 246 6 0 0 0 - - - 12;
#X obj 1404 218 hsl 128 17 200 8000 1 0 empty empty empty -2 -8 0 10 #e4e4e4 #4d4d4d #373737 0 1;
#X floatatom 1529 485 2 0 0 0 - - - 16;
#X obj 1482 604 pow;
#X floatatom 1482 639 8 0 0 0 - - - 16;
#X obj 1566 604 pow 2;
#X floatatom 1566 639 7 0 0 0 - - - 16;
#X obj 1482 668 * 200;
#X floatatom 1482 707 8 0 0 0 - - - 16;
#X obj 1485 485 bng 25 250 50 0 empty empty empty 17 7 0 10 #e4e4e4 #4d4d4d #373737;
#X obj 1475 397 t b f;
#X text 1443 666 low;
#X floatatom 1538 404 5 0 0 0 - - - 12;
#X text 1424 195 Cutoff (tone);
#X obj 1418 282 i;
#X obj 1529 322 clip 0 20;
#X obj 1475 282 +;
#X obj 1475 354 / 20;
#X obj 1538 444 s led2_blue @hv_param;
#X text 1418 530 multiplier for high end of range, f 9;
#X floatatom 1580 365 5 0 0 0 - - - 12;
#X obj 1472 36 r Encoder @hv_param;
#X msg 1345 111 1;
#X msg 1391 111 -1;
#X text 1259 103 Mimic encoder for testing, f 11;
#X obj 1398 769 s cutoff_freq;
#X msg 1482 532 30;
#X msg 164 -60 0.5;
#X obj 1472 144 * -1;
#X text 1515 142 v0.3 encoder is wrong way around, f 18;
#X connect 0 0 2 0;
#X connect 1 0 0 1;
#X connect 3 0 2 0;
#X connect 4 0 7 0;
#X connect 4 0 9 0 32.................b....j1+++OG....o8++++I....;
#X connect 5 0 4 0;
#X connect 5 0 143 0;
#X connect 7 0 6 0 32.................6....D6++++N....w9+++2E....;
#X connect 7 0 6 1 32.................GA...D7++++Q....A++++2E....;
#X connect 8 0 56 0;
#X connect 9 0 2 0 48.................K....nw++++B....Z7+++mA...fD++++Y....Hw+++uF....;
#X connect 10 0 129 0;
#X connect 11 0 12 0;
#X connect 12 0 13 0;
#X connect 13 0 15 0;
#X connect 13 0 11 1 48.................I....3B...PB....t....P5++++B....j9+++u....Pp++++;
#X connect 14 0 11 0;
#X connect 15 0 21 0;
#X connect 15 1 23 0;
#X connect 16 0 119 0;
#X connect 16 0 115 0;
#X connect 17 0 120 0;
#X connect 17 0 116 0;
#X connect 18 0 19 0;
#X connect 19 0 140 0 32.................k....XB...PI....l....jD....;
#X connect 19 0 141 0 32.................X....XK....F....1B...jC....;
#X connect 20 0 3 0;
#X connect 21 0 16 0;
#X connect 22 0 21 1;
#X connect 22 0 85 0 48.................L....f3+++OC....H9+++Sx+++O29+++j7+++ys+++eL++++;
#X connect 23 0 17 0;
#X connect 24 0 23 1;
#X connect 25 0 43 0;
#X connect 27 0 29 0 32.................H..........B..........A....;
#X connect 27 0 9 1 32.................y....H9++++L....h++++eD....;
#X connect 28 0 30 0;
#X connect 28 0 7 1 32.................f....r6+++OH....69++++C....;
#X connect 31 0 32 0 32.................X....T4+++OF....U9+++iB....;
#X connect 32 0 74 0;
#X connect 33 0 37 0;
#X connect 34 0 139 0;
#X connect 34 0 141 1 32.................J....f8+++uB....X++++iD....;
#X connect 35 0 73 0;
#X connect 36 0 32 1;
#X connect 36 0 71 0;
#X connect 37 0 35 0;
#X connect 38 0 39 0;
#X connect 39 0 40 1;
#X connect 39 0 68 0;
#X connect 40 0 41 0;
#X connect 41 0 31 0;
#X connect 42 0 67 0;
#X connect 42 0 40 0;
#X connect 43 0 22 0;
#X connect 43 0 13 0 32.................N....fD...fC....HA...nB....;
#X connect 43 0 24 0 64......................DJ.........gB....B...Pn....f....DJ....L....gB....C...Pn....+A....;
#X connect 44 0 17 0 32.................cC...nI...P2....ZB...rN....;
#X connect 44 1 22 0 32.................+A...nC...ve....5....TI....;
#X connect 44 1 24 0 48.................hA...DI...fX....QB...LF...f1....iA...nM...Pk....;
#X connect 45 0 99 0;
#X connect 51 0 49 0;
#X connect 52 0 50 0;
#X connect 55 0 27 0 32.................G.........vA.........3.....;
#X connect 57 0 28 0;
#X connect 60 0 45 0 48.................T++++G.....0++++A....n0+++uu++++Z8+++66+++eZ++++;
#X connect 61 0 45 0 64.................S8+++2+++++T++++8++++Oz+++e+++++C8+++2++++uH++++V++++Kx+++u0++++s7+++C;
#X connect 62 0 63 0;
#X connect 65 0 39 1;
#X connect 66 0 39 1;
#X connect 69 0 70 0;
#X connect 70 0 103 0;
#X connect 70 1 102 0;
#X connect 72 0 74 1;
#X connect 73 0 117 0;
#X connect 73 1 118 0;
#X connect 74 0 160 3;
#X connect 78 0 0 0;
#X connect 78 0 6 0 48.................BF...DB...ffA...g....LX....p....CF...fJ....lA...;
#X connect 78 0 6 1 32.................NF...fK...fiA...3B...fY....;
#X connect 79 0 125 0;
#X connect 80 0 147 0;
#X connect 81 0 10 0;
#X connect 82 0 92 0;
#X connect 84 0 92 0;
#X connect 85 0 88 2;
#X connect 85 1 88 3;
#X connect 86 0 88 0;
#X connect 87 0 88 1;
#X connect 89 0 88 4;
#X connect 93 0 142 0;
#X connect 95 0 44 0;
#X connect 97 0 94 0;
#X connect 97 0 100 0;
#X connect 97 0 132 0;
#X connect 98 0 94 0;
#X connect 98 0 100 0;
#X connect 99 0 88 0;
#X connect 99 1 88 1;
#X connect 101 0 42 0;
#X connect 102 0 39 0;
#X connect 102 1 65 0;
#X connect 103 0 39 0;
#X connect 103 1 66 0;
#X connect 104 0 105 0;
#X connect 105 0 104 1 48.................J....7B...fB....u....X7++++B....F++++u.....z++++;
#X connect 105 0 114 0;
#X connect 106 0 107 0;
#X connect 106 0 109 0 32.................xB....8+++ur....P++++WN....;
#X connect 107 0 104 0;
#X connect 108 0 109 1;
#X connect 109 0 110 0;
#X connect 110 0 101 0;
#X connect 110 0 69 0;
#X connect 111 0 105 0 32.................9....z6+++uO....89+++SD....;
#X connect 111 0 112 0 32.................6....j....vN....I....TG....;
#X connect 112 0 108 0 32.................L....P6+++OC....z9+++eA....;
#X connect 113 0 111 0;
#X connect 114 0 108 0;
#X connect 115 0 58 0;
#X connect 116 0 59 0;
#X connect 117 0 72 0;
#X connect 118 0 72 0;
#X connect 119 0 1 0;
#X connect 120 0 1 0;
#X connect 121 0 36 0;
#X connect 122 0 123 0;
#X connect 123 0 8 0;
#X connect 124 0 147 0;
#X connect 125 0 128 0;
#X connect 128 0 126 0;
#X connect 129 0 46 0;
#X connect 131 0 132 0;
#X connect 132 0 130 0;
#X connect 133 0 131 0;
#X connect 134 0 111 0;
#X connect 136 0 148 0;
#X connect 137 0 148 0;
#X connect 138 0 140 0;
#X connect 138 0 141 0;
#X connect 140 0 48 0;
#X connect 140 0 14 0 32.................aB...Lq++++l....y5+++yN....;
#X connect 140 0 106 0 48.................gA...rA...PX....a....DF...fd....gA...nG...Pc....;
#X connect 141 0 47 0;
#X connect 142 0 5 0;
#X connect 142 1 140 0;
#X connect 142 1 141 0;
#X connect 142 2 148 0;
#X connect 145 0 5 1;
#X connect 145 0 154 0;
#X connect 148 0 144 0;
#X connect 148 0 140 1;
#X connect 148 0 34 0;
#X connect 148 1 34 1;
#X connect 150 0 35 0;
#X connect 151 0 198 0;
#X connect 153 0 155 0;
#X connect 154 1 158 0;
#X connect 154 2 153 1;
#X connect 155 0 164 0;
#X connect 156 0 158 0;
#X connect 157 0 154 0;
#X connect 158 0 153 0;
#X connect 160 0 2 0;
#X connect 161 0 160 1;
#X connect 162 0 160 2;
#X connect 163 0 160 0;
#X connect 165 0 170 0;
#X connect 167 0 169 0;
#X connect 172 0 171 0;
#X connect 172 0 196 0;
#X connect 173 0 176 0;
#X connect 174 0 175 0;
#X connect 175 0 178 0;
#X connect 176 0 177 0;
#X connect 177 0 174 1;
#X connect 178 0 179 0;
#X connect 179 0 196 0;
#X connect 180 0 197 0;
#X connect 181 0 180 0;
#X connect 181 1 173 0;
#X connect 183 0 189 0 32.................P....XB....D....l....PB....;
#X connect 185 0 187 1;
#X connect 186 0 185 0;
#X connect 186 0 188 0;
#X connect 186 0 191 0;
#X connect 187 0 186 0;
#X connect 188 0 183 0;
#X connect 188 0 181 0;
#X connect 192 0 199 0;
#X connect 193 0 187 0;
#X connect 194 0 187 0;
#X connect 197 0 174 0;
#X connect 198 0 167 0;
#X connect 199 0 187 0;
