#N canvas 827 239 527 327 12;
#N canvas 733 172 450 300 tapdelay 1;
#X obj 148 100 r~ feedback;
#X obj 7 188 hsl 162 19 0 2000 0 0 empty empty Delay\ time -2 -10 0 12 #fcfcfc #000000 #000000 0 1;
#X obj 4 240 pack f 50;
#X obj 4 279 line~;
#X obj 3 515 s~ feedback;
#X obj 143 515 *~;
#X obj 293 515 *~;
#X obj 208 277 vsl 15 128 0 1 0 0 empty empty empty 0 -9 0 10 #fcfcfc #000000 #000000 0 1;
#X obj 242 430 - 1;
#X floatatom 242 488 5 0 0 0 - - - 0;
#X obj 242 460 * -1;
#X floatatom 202 488 5 0 0 0 - - - 0;
#X obj 202 582 +~;
#X text 174 276 Mix;
#X text 223 289 Wet;
#X text 225 369 Dry;
#X obj 3 439 *~ 0.6;
#X obj 826 138 timer;
#X obj 805 92 bng 25 250 50 0 empty empty empty 17 7 0 10 #e4e4e4 #4d4d4d #373737;
#X floatatom 826 185 15 0 0 0 - - - 16;
#X obj 956 185 + 1;
#X floatatom 967 226 6 0 0 0 - - - 16;
#X msg 958 131 1;
#X obj 826 260 /;
#X floatatom 826 296 16 0 0 0 - - - 16;
#X msg 988 131 0;
#X obj 880 71 t f b b;
#X obj 707 226 t f f;
#X obj 707 277 -;
#X obj 707 318 f;
#X obj 707 355 abs;
#X obj 707 439 moses 2000;
#X obj 933 470 metro;
#X msg 885 414 0;
#X floatatom 707 395 8 0 0 0 - - - 12;
#X obj 860 17 bng 25 250 50 0 empty empty empty 17 7 0 10 #e4e4e4 #4d4d4d #373737;
#X floatatom 4 131 7 0 0 0 - - - 16;
#X obj 4 337 vd~ tapdelay;
#X obj 148 152 delwrite~ tapdelay 2000;
#X obj 526 308 / 2;
#X floatatom 526 354 10 0 0 0 - - - 16;
#X obj 526 470 metro;
#X obj 526 515 tgl 25 0 empty empty empty 17 7 0 10 #e4e4e4 #4d4d4d #373737 0 1;
#X obj 467 17 bng 25 250 50 0 empty empty empty 17 7 0 10 #e4e4e4 #4d4d4d #373737;
#X obj 526 60 t b b;
#X floatatom 526 236 11 0 0 0 - - - 12;
#X obj 526 194 float;
#X obj 439 119 + 1;
#X floatatom 439 158 5 0 0 0 - - - 12;
#X msg 439 86 1;
#X obj 439 194 % 3;
#X floatatom 439 233 5 0 0 0 - - - 12;
#X obj 439 269 + 1;
#X floatatom 439 308 5 0 0 0 - - - 12;
#X text 954 298 Tap avg in ms;
#X text 382 17 Subdivision;
#X text 781 17 Tap tempo;
#X text 143 17 Delay with feedback;
#X obj 293 35 inlet~;
#X obj 202 643 outlet~;
#X obj 526 596 outlet;
#X obj 933 596 outlet;
#X obj 110 54 inlet;
#X obj 202 54 inlet;
#X obj 566 18 inlet;
#X obj 942 18 inlet;
#X obj 933 531 tgl 25 0 empty empty empty 17 7 0 10 #e4e4e4 #4d4d4d #373737 0 1;
#X connect 0 0 38 0 32.................P..........D..........B....;
#X connect 1 0 2 0 32.................Q.........PD.........DB....;
#X connect 2 0 3 0 32.................J.........fB.........LA....;
#X connect 3 0 37 0 32.................S.........vD.........XB....;
#X connect 5 0 12 0 32.................X....rC....F....6....7B....;
#X connect 6 0 12 1 32.................P....D6+++OD....w9++++B....;
#X connect 7 0 11 0 32.................e....P....vG....D....zC....;
#X connect 7 0 8 0 32.................9++++uB...f+++++q....L.....;
#X connect 8 0 10 0 32.................E.........PA.........n.....;
#X connect 9 0 6 1 32.................E....3C...PA....9....j.....;
#X connect 10 0 9 0 32.................D..........A.........f.....;
#X connect 11 0 5 1 32.................E.....8+++eA....P++++m.....;
#X connect 12 0 59 0 32.................U.........PE.........jB....;
#X connect 16 0 4 0 32.................b..........G.........fC....;
#X connect 17 0 19 0 32.................N.........fC.........rA....;
#X connect 18 0 17 0 32.................K....TA...vB....U....TA....;
#X connect 18 0 25 0 32.................C....fK...v.....3B...X.....;
#X connect 18 0 32 0 32.................1A....H...fc.....B...DV....;
#X connect 19 0 23 0 32.................W.........vE.........3B....;
#X connect 19 0 27 0 32.................J....n3+++uB....J9+++OA....;
#X connect 20 0 21 0 32.................O....r....vC....K....TA....;
#X connect 21 0 23 1 48.................D.....7+++OA.....++++S....ve++++D....72+++OC....;
#X connect 21 0 20 1 48.................L....TF....C....kA...H7+++O.....B++++C....fv++++;
#X connect 22 0 20 0 32.................U....TB...PE....k....nB....;
#X connect 23 0 24 0 32.................L..........C.........bA....;
#X connect 24 0 32 1 32.................4....HH...PN....BB...fI....;
#X connect 24 0 36 0 64.................a....by++++F....27+++O5++++M++++i9+++ey+++uQ++++Ky+++az++++x7+++F8+++C;
#X connect 24 0 46 1 48.................L....nz+++OC....J8+++i2+++e49+++38+++Wt+++eg++++;
#X connect 25 0 20 1 32.................U....X++++eE....1++++qB....;
#X connect 25 0 21 0 32.................DA...z9+++OQ....s++++uD....;
#X connect 26 1 17 1 32.................X.....8+++OF....P+++++B....;
#X connect 26 2 22 0 32.................P....TA....D....U.....B....;
#X connect 27 0 28 1 32.................P....r.....D....K....7A....;
#X connect 27 1 28 0 32.................P....X++++OD....1+++++A....;
#X connect 28 0 29 0 32.................K.........vB.........TA....;
#X connect 28 0 29 1;
#X connect 29 0 30 0 32.................I.........PB.........DA....;
#X connect 30 0 34 0 32.................J.........fB.........PA....;
#X connect 31 1 18 0 48......................HA.........R....Ho++++H....R5+++OB...fj9+++;
#X connect 32 0 66 0 32.................U.........PE.........jB....;
#X connect 33 0 32 0 32.................R....DC...fD....w....PB....;
#X connect 34 0 31 0 32.................M.........PC.........nA....;
#X connect 35 0 26 0 32.................O....PA...vC....T....zA....;
#X connect 36 0 1 0 32.................R.........fD.........LB....;
#X connect 37 0 16 0 32.................o.........PJ.........HE....;
#X connect 37 0 5 0 32.................u....rH...vK....KB...3I....;
#X connect 39 0 40 0 32.................M.........PC.........nA....;
#X connect 40 0 41 1 32.................u....3A...vK....d....3E....;
#X connect 40 0 41 0 32.................u....b....vK....G....3E....;
#X connect 40 0 36 0 48.................K....D0++++B....Q8+++yv++++88+++L7+++ee+++OC++++;
#X connect 41 0 42 0 32.................L..........C.........fA....;
#X connect 42 0 60 0 32.................m....38++++I....d++++6D....;
#X connect 43 0 44 0 32.................I....rC...PB....6....HA....;
#X connect 43 0 49 0 32.................N....L9+++uC....i++++eB....;
#X connect 44 0 46 0 32.................4....X....PN....F....HG....;
#X connect 44 1 49 0 32.................E....f4+++eA....X9+++G.....;
#X connect 45 0 39 0 32.................a.........vF.........XC....;
#X connect 46 0 45 0 32.................K.........vB.........XA....;
#X connect 47 0 48 0 32.................J.........fB.........LA....;
#X connect 48 0 47 1 48......................X..........F....f7++++B....H++++u.....x++++;
#X connect 48 0 50 0 32.................I.........PB.........HA....;
#X connect 49 0 47 0 32.................I....H....PB....B....HA....;
#X connect 50 0 51 0 32.................J.........fB.........LA....;
#X connect 51 0 52 0 32.................I.........PB.........HA....;
#X connect 52 0 53 0 32.................J.........fB.........LA....;
#X connect 53 0 39 1 48......................LB.........i....79+++OZ....u++++iF...v6++++;
#X connect 58 0 38 0 32.................j.....2+++OI....v8+++GF....;
#X connect 58 0 6 0 32.................lC........f4.........vb....;
#X connect 62 0 16 1 32.................3D....6+++ONA...v9+++2V....;
#X connect 63 0 7 0 32.................wA...3++++eb....9++++GN....;
#X connect 64 0 44 0 32.................K....j8++++B....Y++++aA....;
#X connect 65 0 26 0 32.................Q....L7+++eD....C++++GB....;
#X connect 66 0 61 0 32.................T..........E.........fB....;
#X restore 932 278 pd tapdelay;
#X obj 593 629 dac~;
#X obj 1066 629 s led2 @hv_param;
#X obj 932 629 s led1 @hv_param;
#X obj 771 94 r Knob1 @hv_param;
#X obj 828 126 r Knob2 @hv_param;
#X obj 980 94 r Button2 @hv_param;
#X obj 997 126 r Button1 @hv_param;
#N canvas 733 172 450 300 tremolo 0;
#X obj 147 609 *~;
#X obj 237 432 *~;
#X msg 950 167 1;
#X obj 653 84 vsl 17 128 0 1 0 0 empty empty empty 0 -9 0 10 #e4e4e4 #4d4d4d #373737 0 1;
#X obj 253 102 vsl 17 128 0 16 0 0 empty empty empty 0 -9 0 10 #e4e4e4 #4d4d4d #373737 0 1;
#X obj 892 258 +;
#X obj 830 111 loadbang;
#X obj 830 258 f;
#X obj 798 111 bng 25 250 50 0 empty empty empty 17 7 0 10 #e4e4e4 #4d4d4d #373737;
#X msg 830 160 0.5;
#X obj 908 213 * 0.05;
#X msg 982 170 -1;
#X text 200 101 Rate;
#X obj 248 343 osc~;
#X floatatom 209 261 5 0 0 0 - - - 12;
#X obj 237 523 *~ 1.4;
#X text 596 83 Depth;
#X floatatom 648 234 5 0 0 0 - - - 12;
#X msg 650 284 1;
#X obj 650 322 -;
#X floatatom 577 284 8 0 0 0 - - - 16;
#X floatatom 650 362 9 0 0 0 - - - 16;
#X obj 237 607 *~;
#X obj 417 432 *~;
#X obj 428 343 osc~;
#X obj 417 523 *~ 1.4;
#X obj 343 609 *~;
#X obj 417 596 *~;
#X obj 855 316 clip 0 0.5;
#X floatatom 798 374 5 0 0 0 - - - 12;
#X obj 300 180 * 16;
#X text 798 82 Phase offset;
#X obj 147 121 inlet~;
#X obj 191 818 outlet~;
#X obj 386 818 outlet~;
#X obj 300 138 inlet;
#X obj 697 171 inlet;
#X obj 908 111 inlet;
#X obj 908 374 outlet;
#X connect 0 0 33 0 32.................eA...DB...vW....g....zK....;
#X connect 1 0 15 0;
#X connect 2 0 10 0 32.................M....j8+++eC....Y++++qA....;
#X connect 3 0 17 0;
#X connect 4 0 13 0;
#X connect 4 0 24 0 48.................k....vC...PI....7....XB....s....l....PK...Pb....;
#X connect 4 0 14 0 32.................P....n8+++OD....Z+++++A....;
#X connect 5 0 28 0 32.................S....v8++++D....b++++aB....;
#X connect 5 0 7 0 48.................H....H9+++OB....h++++29++++v++++s++++O7+++e6++++;
#X connect 6 0 9 0 32.................L.....B....C....f....fA....;
#X connect 7 0 5 1 48.................H....TB....B....k....z9+++eR....s++++mD...P6++++;
#X connect 8 0 9 0 32.................L....DD....C....AA...fA....;
#X connect 9 0 7 0 32.................m.........vI.........3D....;
#X connect 10 0 5 0 32.................M....D++++eC....w++++mA....;
#X connect 11 0 10 0 48.................T....L7+++OE....C++++OA....o++++S....P5+++uF....;
#X connect 13 0 1 1;
#X connect 15 0 22 0;
#X connect 17 0 18 0;
#X connect 17 0 19 1 32.................U....z....PE....M....XD....;
#X connect 17 0 20 0 32.................K....n6++++B....59+++CB....;
#X connect 18 0 19 0;
#X connect 19 0 21 0;
#X connect 20 0 27 1 48.................hD...76+++uHA...+9+++KR...va++++hD...71+++uHA...;
#X connect 20 0 22 1 48.................ED...fq+++eAA...35+++2R....t9+++sD...fq+++eKA...;
#X connect 21 0 0 1 48.................TA...r1+++OU....q8+++SE...PE9+++TA...Tg+++e3....;
#X connect 21 0 26 1 64.................tA....5+++ua....f9+++6F....19+++tA...fs+++e3....Y6+++GN...P19+++gC....;
#X connect 22 0 33 0 32.................fA...f7+++OX....H+++++K....;
#X connect 23 0 25 0;
#X connect 24 0 23 1;
#X connect 25 0 27 0;
#X connect 26 0 34 0 32.................eA...H8++++W....R++++2K....;
#X connect 27 0 34 0 32.................rA...b8+++Oa....W++++qL....;
#X connect 28 0 24 1 32.................A....rd+++e.....q2+++S.....;
#X connect 28 0 29 0 32.................S....f7++++D....H++++aB....;
#X connect 28 0 38 0 32.................g....jJ...PH....oB...bE....;
#X connect 30 0 24 0 32.................u....LD...vK....CA...zE....;
#X connect 30 0 13 0 32.................BB....4+++uf....P9+++mI....;
#X connect 32 0 0 0 32.................pC...r....f5....K....Pc....;
#X connect 32 0 26 0 48.................zC...vH....8....LB...LO....w....yC...PL....0A...;
#X connect 32 0 1 0 32.................xB...nE...fr....ZA...LR....;
#X connect 32 0 23 0 48.................hB...bH...fn....GB...LJ...fCA...iB...3P...vHA...;
#X connect 35 0 30 0;
#X connect 36 0 17 0 32.................V.....6+++uE....v9+++uB....;
#X connect 37 0 10 0 32.................r.....9+++OK....f++++iE....;
#X restore 290 278 pd tremolo;
#X obj 710 52 r Encoder @hv_param;
#X obj 135 15 r EncSwitch @hv_param;
#X obj 113 113 + 1;
#X obj 90 15 bng 15 250 50 0 empty empty empty 17 7 0 10 #fcfcfc #000000 #000000;
#X floatatom 113 151 5 0 0 0 - - - 0;
#X msg 115 71 1;
#X obj 113 204 % 2;
#X floatatom 113 248 5 0 0 0 - - - 0;
#X obj 112 289 select 0 1;
#X obj 399 515 *~ 1;
#X obj 442 515 *~ 1;
#X obj 688 508 *~ 1;
#X obj 745 508 *~ 1;
#X msg 628 441 1;
#X floatatom 593 517 5 0 0 0 - - - 12;
#X msg 326 459 0;
#X floatatom 325 515 5 0 0 0 - - - 12;
#X obj 160 335 t b b;
#X msg 360 459 1;
#X msg 593 441 0;
#X obj 100 335 t b b;
#X obj 817 593 * 1;
#X obj 1065 536 * 1;
#X obj 932 536 * 1;
#X obj 561 15 adc~;
#X text 153 51 Selects between effects;
#X text 48 454 Hacky approach - on switching from the select \, we just turn up the volume on the desired effect \, and turn it down on the others. There must be better ways \, but it works for the moment., f 37;
#X connect 0 0 20 0 32.................7....zv+++OO....M7+++KM....;
#X connect 0 0 21 0 32.................mB...Xz++++o....F8+++KM....;
#X connect 0 1 31 0 32.................sA...TF...Pa....kA...3N....;
#X connect 0 2 32 0 32.................5A....7+++ud.....++++6N....;
#X connect 4 0 8 1 32.................2....Di++++M....w3+++SJ....;
#X connect 4 0 0 0 32.................2....DJ...vM....gB...PJ....;
#X connect 5 0 0 1 32.................r....fG....K....3A...PH....;
#X connect 5 0 8 2 32.................r....jf+++OK....I3+++SH....;
#X connect 6 0 0 3;
#X connect 7 0 0 4;
#X connect 8 0 18 0 32.................cA...zF...PW....sA...jM....;
#X connect 8 1 19 0 32.................cA...3G...PW....9A...jM....;
#X connect 8 2 30 0 32.................uA...rc...va....aG...bR....;
#X connect 9 0 8 3 32.................LA...Do+++OS....Q5+++6L....;
#X connect 10 0 14 0 32.................R....r9+++uD....q++++SB....;
#X connect 11 0 13 0;
#X connect 12 0 14 0 32.................T....rA....E....a....fB....;
#X connect 13 0 15 0;
#X connect 13 0 11 1 48.................R.....C...fD....v....76++++B....+9+++u....Px++++;
#X connect 14 0 11 0;
#X connect 15 0 16 0;
#X connect 16 0 17 0;
#X connect 17 0 29 0;
#X connect 17 1 26 0;
#X connect 18 0 1 0 32.................t....HL...fK....BC...3E....;
#X connect 19 0 1 1 32.................i....nJ...vH....pB...3E....;
#X connect 20 0 1 0 32.................0....H5+++eM....h9+++WF....;
#X connect 21 0 1 1 32.................p....v2+++uJ....78+++WF....;
#X connect 22 0 23 0;
#X connect 22 0 32 1 48......................LB.........i.....C...Pz....v....DM...vi....;
#X connect 22 0 21 1 32.................E....TF...PA....kA...zA....;
#X connect 22 0 31 1 32.................Z++++SZ...f1++++jF...PD....;
#X connect 22 0 20 1 32.................U....nD...PE....JA...7B....;
#X connect 24 0 30 1 48......................PE.........TA...LA...v8A...S....be...fb....;
#X connect 24 0 25 0 32.................R.........fD.........PB....;
#X connect 24 0 18 1 32.................L....XE....C....VA...PB....;
#X connect 24 0 19 1 32.................L....DH....C....AB...PB....;
#X connect 26 0 22 0 32.................Q....Hc...PD....RG...XE....;
#X connect 26 1 24 0 32.................2....TI...vM....UB...fF....;
#X connect 27 0 25 0 32.................R.....9+++uD....f++++SB....;
#X connect 27 0 18 1 32.................R....TC...fD....0....PB....;
#X connect 27 0 19 1 32.................L.....F....C....fA...PB....;
#X connect 27 0 30 1 48......................3D.........NA...b....f0A...G....Xc...fb....;
#X connect 28 0 23 0;
#X connect 28 0 31 1 32.................X....Lb....F....CG...jC....;
#X connect 28 0 21 1 32.................d....PH...fG....DB...zA....;
#X connect 28 0 32 1 48.................d....XG...fG....1A...H++++uOA...x++++6S...PN....;
#X connect 28 0 20 1 32.................J....rD...fB....KA...fB....;
#X connect 29 0 27 0 32.................EA...HP...PQ....BD...fF....;
#X connect 29 1 28 0 32.................F....rj...fA....KI...HA....;
#X connect 30 0 3 0 32.................H....LG....B....yA....A....;
#X connect 31 0 2 0;
#X connect 32 0 3 0;
#X connect 33 0 0 2 32.................I....LY...PB....SF...LO....;
#X connect 33 0 8 0 32.................YA...Hu+++eV....x6+++OO....;
