#N canvas 1208 42 404 481 12;
#X obj 39 560 dac~;
#X obj 161 120 r Knob1 @hv_param;
#X obj 39 309 *~;
#X obj 369 120 r Knob2 @hv_param;
#X obj 39 371 hv.tanh~;
#X obj 39 427 *~;
#X obj 39 494 hv.filter~ lowpass 2000 2;
#X floatatom 1031 427 6 0 0 0 - - - 12;
#X obj 936 143 r Encoder @hv_param;
#X obj 903 399 hsl 128 17 200 8000 1 0 empty empty empty -2 -8 0 10 #e4e4e4 #4d4d4d #373737 0 1;
#X obj 369 142 vsl 17 128 0 1 0 0 empty empty empty 0 -9 0 10 #e4e4e4 #4d4d4d #373737 0 1;
#X obj 161 142 vsl 17 128 0 1 0 0 empty empty empty 0 -9 0 10 #e4e4e4 #4d4d4d #373737 0 1;
#X floatatom 1031 666 2 0 0 0 - - - 16;
#X obj 704 25 loadbang;
#X obj 652 25 bng 25 250 50 0 empty empty empty 17 7 0 10 #e4e4e4 #4d4d4d #373737;
#X obj 984 785 pow;
#X floatatom 984 820 8 0 0 0 - - - 16;
#X obj 1068 785 pow 2;
#X floatatom 1068 820 7 0 0 0 - - - 16;
#X obj 984 849 * 200;
#X floatatom 984 888 8 0 0 0 - - - 16;
#X obj 987 666 bng 25 250 50 0 empty empty empty 17 7 0 10 #e4e4e4 #4d4d4d #373737;
#X msg 984 713 40;
#X obj 977 578 t b f;
#X text 945 848 low;
#X floatatom 1040 585 5 0 0 0 - - - 12;
#X obj 39 15 adc~;
#X text 116 148 Drive;
#X text 306 148 Volume;
#X text 926 377 Cutoff (tone);
#X text 771 791 Convert to exponential scale for frequency, f 11;
#X obj 134 287 *~ 50;
#X obj 39 100 hv.filter~ highpass;
#X obj 477 399 hsl 127 15 50 800 1 0 empty empty empty -2 -8 0 10 #e4e4e4 #4d4d4d #373737 0 1;
#X floatatom 626 427 5 0 0 0 - - - 12;
#X floatatom 596 666 4 0 0 0 - - - 16;
#X obj 557 463 +;
#X obj 556 785 pow;
#X floatatom 556 820 8 0 0 0 - - - 16;
#X obj 658 785 pow 2;
#X floatatom 658 820 7 0 0 0 - - - 16;
#X floatatom 556 900 8 0 0 0 - - - 16;
#X obj 557 666 bng 25 250 50 0 empty empty empty 17 7 0 10 #e4e4e4 #4d4d4d #373737;
#X obj 557 578 t b f;
#X text 508 860 low;
#X floatatom 618 582 5 0 0 0 - - - 12;
#X obj 556 861 * 50;
#X msg 557 713 20;
#X obj 473 950 s hpcutoff;
#X obj 86 50 r hpcutoff;
#X msg 572 201 1;
#X msg 618 201 -1;
#X obj 704 296 spigot;
#X obj 726 248 tgl 25 0 empty empty empty 17 7 0 10 #e4e4e4 #4d4d4d #373737 0 1;
#X obj 788 297 spigot;
#X obj 810 249 tgl 25 0 empty empty empty 17 7 0 10 #e4e4e4 #4d4d4d #373737 0 1;
#X obj 770 189 bng 25 250 50 0 empty empty empty 17 7 0 10 #e4e4e4 #4d4d4d #373737;
#X obj 502 463 i;
#X obj 557 535 / 20;
#X obj 557 494 clip 0 20;
#X obj 920 463 i;
#X obj 1031 503 clip 0 20;
#X obj 977 463 +;
#X obj 977 535 / 20;
#X obj 900 950 s lpcutoff;
#X obj 106 453 r lpcutoff;
#X text 502 377 Cutoff (hpf);
#X obj 770 143 r EncSwitch @hv_param;
#X msg 659 143 1;
#X msg 690 143 0;
#X obj 618 625 s led1_green @hv_param;
#X obj 1040 625 s led2_blue @hv_param;
#X obj 936 210 * -1;
#X text 987 178 Use 1 here for the Pod and -1 for v0.3 of the Podal as it has encoder the wrong way around, f 14;
#X text 486 194 Mimic encoder for testing, f 11;
#X text 770 90 Encoder swich toggle adjustment of cutoffs, f 17;
#X text 491 712 multiplier for high end of range, f 9;
#X text 920 712 multiplier for high end of range, f 9;
#X text -76 99 This controls the amount of bottom end getting clipped \; things get flappy and farty if too low, f 16;
#X text -76 493 Acts as a tone control, f 16;
#X text 680 534 20 gradations of the encoder for the cutoff frequency might be too much - change if desired, f 31;
#X floatatom 1082 546 5 0 0 0 - - - 12;
#X connect 1 0 31 0;
#X connect 2 0 4 0;
#X connect 3 0 5 1;
#X connect 4 0 5 0;
#X connect 5 0 6 0;
#X connect 6 0 0 0;
#X connect 6 0 0 1;
#X connect 8 0 72 0;
#X connect 9 0 7 0;
#X connect 9 0 64 0;
#X connect 10 0 5 1;
#X connect 11 0 31 0;
#X connect 12 0 17 0;
#X connect 13 0 68 0;
#X connect 13 0 69 0;
#X connect 14 0 68 0;
#X connect 14 0 69 0;
#X connect 15 0 16 0;
#X connect 16 0 19 0;
#X connect 17 0 18 0;
#X connect 18 0 15 1;
#X connect 19 0 20 0;
#X connect 20 0 64 0;
#X connect 21 0 22 0;
#X connect 22 0 15 0;
#X connect 23 0 21 0;
#X connect 23 1 12 0;
#X connect 25 0 71 0 32.................P....XB....D....l....PB....;
#X connect 26 0 32 0;
#X connect 31 0 2 1;
#X connect 32 0 2 0;
#X connect 33 0 34 0;
#X connect 33 0 48 0;
#X connect 35 0 39 0;
#X connect 36 0 59 0;
#X connect 37 0 38 0;
#X connect 38 0 46 0;
#X connect 39 0 40 0;
#X connect 40 0 37 1;
#X connect 41 0 48 0;
#X connect 42 0 47 0;
#X connect 43 0 42 0;
#X connect 43 1 35 0;
#X connect 45 0 70 0 32.................P....XB....D....l....PB....;
#X connect 46 0 41 0;
#X connect 47 0 37 0;
#X connect 49 0 32 1;
#X connect 50 0 52 0;
#X connect 50 0 54 0;
#X connect 51 0 52 0;
#X connect 51 0 54 0;
#X connect 52 0 36 0;
#X connect 53 0 52 1;
#X connect 54 0 62 0;
#X connect 55 0 54 1;
#X connect 56 0 53 0;
#X connect 56 0 55 0;
#X connect 57 0 36 1;
#X connect 58 0 43 0;
#X connect 58 0 45 0;
#X connect 59 0 58 0;
#X connect 59 0 57 0;
#X connect 60 0 62 1;
#X connect 61 0 60 0;
#X connect 61 0 63 0;
#X connect 61 0 81 0;
#X connect 62 0 61 0;
#X connect 63 0 23 0;
#X connect 63 0 25 0;
#X connect 65 0 6 1;
#X connect 67 0 56 0;
#X connect 68 0 53 0;
#X connect 69 0 55 0;
#X connect 72 0 52 0;
#X connect 72 0 54 0;
