#N canvas 1208 42 404 481 12;
#X obj 71 504 dac~;
#X obj 242 142 r Knob1 @hv_param;
#X obj 79 158 *~;
#X obj 478 139 r Knob2 @hv_param;
#X obj 79 229 hv.tanh~;
#X obj 210 188 *~ 1000;
#X obj 79 298 *~;
#X obj 79 390 hv.filter~ lowpass 2000 2;
#X floatatom 962 70 16 0 0 0 - - - 16;
#X obj 816 96 r Encoder @hv_param;
#X msg 858 126 1;
#X obj 826 70 hsl 128 17 200 8000 0 0 empty empty empty -2 -8 0 10 #e4e4e4 #4d4d4d #373737 0 1;
#X obj 439 42 vsl 17 128 0 1 0 0 empty empty empty 0 -9 0 10 #e4e4e4 #4d4d4d #373737 0 1;
#X obj 206 34 vsl 17 128 0 1 0 0 empty empty empty 0 -9 0 10 #e4e4e4 #4d4d4d #373737 0 1;
#X floatatom 776 380 16 0 0 0 - - - 16;
#X obj 800 217 +;
#X obj 706 75 loadbang;
#X obj 738 217 f;
#X obj 673 70 bng 25 250 50 0 empty empty empty 17 7 0 10 #e4e4e4 #4d4d4d #373737;
#X obj 763 504 pow;
#X floatatom 763 539 8 0 0 0 - - - 16;
#X obj 847 504 pow 2;
#X floatatom 847 539 12 0 0 0 - - - 16;
#X obj 763 580 * 200;
#X floatatom 763 619 14 0 0 0 - - - 16;
#X obj 763 420 bng 25 250 50 0 empty empty empty 17 7 0 10 #e4e4e4 #4d4d4d #373737;
#X msg 760 467 40;
#X msg 738 119 0.5;
#X obj 763 332 t b f;
#X obj 816 172 * 0.05;
#X text 684 466 high / low;
#X text 724 579 low;
#X floatatom 872 298 5 0 0 0 - - - 12;
#X obj 763 275 clip 0 1;
#X msg 904 129 -1;
#X obj 79 88 adc~;
#X obj 872 341 s led1 @hv_param;
#X text 242 33 Drive;
#X text 480 41 Volume;
#X text 825 41 Cutoff (tone);
#X text 491 297 Convert to exponential scale for frequency;
#X connect 1 0 5 0;
#X connect 2 0 4 0;
#X connect 3 0 6 1;
#X connect 4 0 6 0;
#X connect 5 0 2 1;
#X connect 6 0 7 0;
#X connect 7 0 0 0;
#X connect 7 0 0 1;
#X connect 9 0 29 0;
#X connect 10 0 29 0;
#X connect 11 0 7 1;
#X connect 11 0 8 0;
#X connect 12 0 6 1;
#X connect 13 0 5 0;
#X connect 14 0 21 0;
#X connect 15 0 17 0;
#X connect 15 0 33 0;
#X connect 16 0 27 0;
#X connect 17 0 15 1;
#X connect 18 0 27 0;
#X connect 19 0 20 0;
#X connect 20 0 23 0;
#X connect 21 0 22 0;
#X connect 22 0 19 1;
#X connect 23 0 24 0;
#X connect 24 0 7 1;
#X connect 25 0 26 0;
#X connect 26 0 19 0;
#X connect 27 0 17 0;
#X connect 28 0 25 0;
#X connect 28 1 14 0;
#X connect 29 0 15 0;
#X connect 32 0 36 0 32.................P....XB....D....l....PB....;
#X connect 33 0 28 0;
#X connect 33 0 32 0;
#X connect 34 0 29 0;
#X connect 35 0 2 0;
