#N canvas 827 239 527 327 12;
#X obj 276 218 bng 25 250 50 0 empty empty empty 17 7 0 10 #e4e4e4 #4d4d4d #373737;
#X obj 430 44 bng 23 250 50 0 empty empty empty 17 7 0 10 #e4e4e4 #4d4d4d #373737;
#X msg 276 256 start;
#X obj 873 373 phasor~;
#X obj 611 684 dac~;
#X obj 616 628 *~;
#X obj 924 532 hsl 128 17 0 1 0 0 empty empty empty -2 -8 0 10 #e4e4e4 #4d4d4d #373737 0 1;
#X obj 481 44 r Button1 @hv_param;
#X obj 873 44 r Button2 @hv_param;
#X obj 902 496 r Knob1 @hv_param;
#X obj 163 104 adc~;
#X obj 482 120 tgl 23 0 empty empty empty 17 7 0 10 #e4e4e4 #4d4d4d #373737 0 1;
#X obj 481 160 select 1;
#X text 879 17 Start/ stop playback;
#X text 486 17 Record;
#X text 1065 531 Volume;
#X msg 705 165 const 0;
#X obj 332 218 bng 25 250 50 0 empty empty empty 17 7 0 10 #e4e4e4 #4d4d4d #373737;
#X msg 332 256 stop;
#X obj 481 304 timer;
#X floatatom 413 412 11 0 0 0 - - - 12;
#X msg 875 212 0, f 3;
#X obj 873 84 bng 25 250 50 0 empty empty empty 17 7 0 10 #e4e4e4 #4d4d4d #373737;
#X obj 331 477 /;
#X msg 331 419 1000;
#X obj 481 248 bng 25 250 50 0 empty empty empty 17 7 0 10 #e4e4e4 #4d4d4d #373737;
#X obj 511 248 bng 25 250 50 0 empty empty empty 17 7 0 10 #e4e4e4 #4d4d4d #373737;
#X obj 423 477 * 48;
#X floatatom 511 628 12 0 0 0 - - - 24;
#X floatatom 375 628 8 0 0 0 - - - 24;
#X obj 903 304 float, f 5;
#X obj 874 130 tgl 23 0 empty empty empty 17 7 0 10 #e4e4e4 #4d4d4d #373737 0 1;
#X obj 873 174 select 1, f 7;
#X obj 904 212 bng 23 250 50 0 empty empty empty 17 7 0 10 #e4e4e4 #4d4d4d #373737;
#X obj 873 435 *~;
#X text 911 83 Pause/ play;
#X text 705 17 Reset;
#X obj 481 347 t b f;
#X obj 398 568 s samples;
#X obj 893 401 r samples;
#X obj 705 44 r EncSwitch @hv_param;
#X obj 137 72 table buffer 480000;
#X obj 705 191 s buffer;
#X obj 179 326 tabwrite~ buffer;
#X msg 659 292 0;
#X obj 705 364 s led1_green @hv_param;
#X msg 738 295 0.7;
#X msg 608 292 0.7;
#X msg 794 295 0;
#X obj 770 514 s~ bufferread;
#X obj 365 288 r~ bufferread;
#X obj 659 44 bng 25 250 50 0 empty empty empty 17 7 0 10 #e4e4e4 #4d4d4d #373737;
#X obj 306 558 s freq;
#X obj 961 267 r freq;
#X obj 616 160 s resetfreq;
#X obj 604 185 s resetphase;
#X obj 982 311 r resetfreq;
#X obj 1005 335 r resetphase;
#X msg 692 120 0;
#X floatatom 1100 286 14 0 0 0 - - - 16;
#X floatatom 988 424 16 0 0 0 - - - 16;
#X obj 398 521 - 2;
#X obj 871 467 tabread~ buffer;
#X obj 608 387 s led1_blue @hv_param;
#X msg 1019 192 0 \, 1;
#X obj 956 662 line~;
#X connect 0 0 2 0;
#X connect 1 0 11 0;
#X connect 2 0 43 0 32.................Z.....5+++uF....f9+++OC....;
#X connect 3 0 34 0;
#X connect 5 0 4 0;
#X connect 5 0 4 1;
#X connect 6 0 5 1 32.................Z....zs+++uF....c6+++6D....;
#X connect 7 0 11 0;
#X connect 8 0 22 0;
#X connect 9 0 5 1 32.................l....3t+++uI....t6+++GG....;
#X connect 10 0 43 0 32.................zA....A....c....P....rL....;
#X connect 11 0 12 0;
#X connect 12 0 25 0;
#X connect 12 0 0 0 32.................T....Py+++OE....z7+++eB....;
#X connect 12 0 48 0 32.................1....HQ...fM....RD...PG....;
#X connect 12 0 47 0 32.................k....7G...PI....+A...DG....;
#X connect 12 1 26 0;
#X connect 12 1 17 0 32.................M....3z+++eC....N8+++eB....;
#X connect 12 1 44 0 32.................t....HI...fK....RB...DG....;
#X connect 12 1 46 0 32.................8....HL...PO....BC...PG....;
#X connect 16 0 42 0;
#X connect 17 0 18 0;
#X connect 18 0 43 0 32.................Q....f1+++eD....n8+++OC....;
#X connect 19 0 37 0;
#X connect 20 0 23 1;
#X connect 20 0 27 0;
#X connect 21 0 3 0;
#X connect 21 0 45 0 48.................O....T2++++C....08++++....PV++++O....j0+++eg....;
#X connect 22 0 31 0;
#X connect 23 0 29 0;
#X connect 23 0 52 0;
#X connect 24 0 23 0;
#X connect 25 0 19 0;
#X connect 26 0 19 1;
#X connect 27 0 28 0;
#X connect 27 0 61 0;
#X connect 30 0 3 0;
#X connect 31 0 32 0;
#X connect 32 0 21 0;
#X connect 32 1 33 0;
#X connect 33 0 30 0;
#X connect 33 0 46 0 32.................k....ry+++eI....67+++yC....;
#X connect 34 0 62 0;
#X connect 37 0 24 0;
#X connect 37 1 20 0;
#X connect 39 0 34 1;
#X connect 39 0 60 0;
#X connect 40 0 58 0;
#X connect 40 0 16 0;
#X connect 44 0 63 0;
#X connect 46 0 45 0;
#X connect 47 0 63 0;
#X connect 48 0 45 0 32.................Y....77+++eF....O++++KC....;
#X connect 50 0 43 0 32.................J....bz+++uB....G8+++OA....;
#X connect 51 0 16 0;
#X connect 51 0 58 0;
#X connect 53 0 3 0;
#X connect 53 0 30 1;
#X connect 53 0 59 0;
#X connect 56 0 3 0;
#X connect 57 0 3 1;
#X connect 58 0 54 0;
#X connect 58 0 55 0;
#X connect 58 0 63 0;
#X connect 61 0 38 0;
#X connect 62 0 5 0 32.................0....Hv+++eM....B7+++6H....;
#X connect 62 0 49 0 32.................N....v4+++uC....b9+++yA....;
#X connect 64 0 3 0;
