#N canvas 827 239 527 327 12;
#X obj 148 100 r~ feedback;
#X obj 7 188 hsl 162 19 0 2000 0 0 empty empty Delay\ time -2 -10 0 12 #fcfcfc #000000 #000000 0 1;
#X obj 4 240 pack f 50;
#X obj 4 279 line~;
#X obj 3 515 s~ feedback;
#X obj 143 515 *~;
#X obj 293 515 *~;
#X obj 205 299 vsl 15 128 0 1 0 0 empty empty empty 0 -9 0 10 #fcfcfc #000000 #000000 0 1;
#X obj 242 430 - 1;
#X floatatom 242 488 5 0 0 0 - - - 0;
#X obj 242 460 * -1;
#X floatatom 203 488 5 0 0 0 - - - 0;
#X obj 202 582 +~;
#X text 219 257 Mix;
#X text 242 281 Wet;
#X text 246 389 Dry;
#X obj 143 219 r Knob2 @hv_param;
#X obj 57 376 r Knob1 @hv_param;
#X obj 202 637 dac~;
#X obj 4 470 *~ 0.6;
#X obj 949 138 timer;
#X obj 928 92 bng 25 250 50 0 empty empty empty 17 7 0 10 #e4e4e4 #4d4d4d #373737;
#X floatatom 949 185 15 0 0 0 - - - 16;
#X obj 1090 185 + 1;
#X floatatom 1090 238 14 0 0 0 - - - 16;
#X msg 1055 123 1;
#X obj 949 253 /;
#X floatatom 949 296 16 0 0 0 - - - 16;
#X msg 1113 123 0;
#X obj 1003 71 t f b b;
#X obj 819 226 t f f;
#X obj 819 277 -;
#X obj 819 318 f;
#X obj 819 355 abs;
#X obj 819 436 moses 2000;
#X obj 1113 470 metro;
#X msg 1065 414 0;
#X obj 1032 18 r Button1 @hv_param;
#X floatatom 819 395 8 0 0 0 - - - 12;
#X obj 983 17 bng 25 250 50 0 empty empty empty 17 7 0 10 #e4e4e4 #4d4d4d #373737;
#X floatatom 4 131 7 0 0 0 - - - 16;
#X obj 4 337 vd~ tapdelay;
#X obj 148 152 delwrite~ tapdelay 2000;
#X obj 532 308 / 2;
#X floatatom 532 354 10 0 0 0 - - - 16;
#X obj 467 17 bng 25 250 50 0 empty empty empty 17 7 0 10 #e4e4e4 #4d4d4d #373737;
#X obj 293 68 adc~;
#X obj 526 60 t b b;
#X obj 582 17 r Button2 @hv_param;
#X floatatom 532 236 11 0 0 0 - - - 12;
#X obj 532 194 float;
#X obj 439 119 + 1;
#X floatatom 439 158 5 0 0 0 - - - 12;
#X obj 439 194 % 3;
#X floatatom 439 233 5 0 0 0 - - - 12;
#X obj 439 269 + 1;
#X floatatom 439 308 5 0 0 0 - - - 12;
#X text 1077 298 Tap avg in ms;
#X text 382 17 Subdivision;
#X text 904 17 Tap tempo;
#X text 79 17 Delay with feedback;
#X obj -78 121 vsl 17 128 0 1 0 0 empty empty empty 0 -9 0 10 #e4e4e4 #4d4d4d #373737 0 1;
#X floatatom -81 297 5 0 0 0 - - - 12;
#X obj 57 411 * 0.9;
#X msg 419 76 1;
#X obj 1049 766 s led1_green @hv_param;
#X msg 1119 534 1;
#X msg 960 679 0;
#X floatatom 1049 719 5 0 0 0 - - - 12;
#X obj 1035 582 t b f;
#X obj 963 629 delay 100;
#X obj 475 525 select 1 2 3;
#X msg 467 715 0.7;
#X msg 538 715 0.7;
#X msg 621 715 0.7;
#X obj 456 841 s led2_blue @hv_param;
#X obj 555 881 s led2_red @hv_param;
#X obj 392 807 s led2_green @hv_param;
#X msg 622 473 0;
#X obj 467 430 t f b;
#X obj 655 146 t b f;
#X connect 0 0 42 0;
#X connect 1 0 2 0;
#X connect 2 0 3 0;
#X connect 3 0 41 0;
#X connect 5 0 12 0;
#X connect 6 0 12 1;
#X connect 7 0 8 0;
#X connect 7 0 11 0;
#X connect 8 0 10 0;
#X connect 9 0 6 1;
#X connect 10 0 9 0;
#X connect 11 0 5 1;
#X connect 12 0 18 0;
#X connect 12 0 18 1;
#X connect 16 0 7 0;
#X connect 17 0 63 0;
#X connect 19 0 4 0;
#X connect 20 0 22 0;
#X connect 21 0 20 0;
#X connect 21 0 28 0;
#X connect 21 0 35 0 32.................QD...jM...PDA...YC...fZ....;
#X connect 22 0 26 0;
#X connect 22 0 30 0;
#X connect 23 0 24 0;
#X connect 24 0 26 1;
#X connect 24 0 23 1 48.................V....rF...fE....qA...P5++++B....j9+++u....fs++++;
#X connect 25 0 23 0;
#X connect 26 0 27 0;
#X connect 27 0 35 1 32.................t....rM...fK....aC...7M....;
#X connect 27 0 80 0;
#X connect 28 0 23 1;
#X connect 28 0 24 0;
#X connect 29 1 20 1;
#X connect 29 2 25 0;
#X connect 30 0 31 1;
#X connect 30 1 31 0;
#X connect 31 0 32 0;
#X connect 32 0 33 0;
#X connect 33 0 38 0;
#X connect 34 1 21 0 48.................J....PA...fB....T.....m++++U....v4+++eE...fe9+++;
#X connect 35 0 66 0;
#X connect 36 0 35 0 32......................7D.........OA...z.....;
#X connect 37 0 29 0;
#X connect 38 0 34 0;
#X connect 39 0 29 0;
#X connect 40 0 1 0;
#X connect 41 0 5 0;
#X connect 41 0 19 0;
#X connect 43 0 44 0;
#X connect 44 0 40 0;
#X connect 45 0 47 0;
#X connect 46 0 6 0;
#X connect 46 0 42 0;
#X connect 47 0 50 0;
#X connect 47 1 64 0;
#X connect 48 0 47 0;
#X connect 49 0 43 0;
#X connect 50 0 49 0;
#X connect 51 0 52 0;
#X connect 52 0 53 0;
#X connect 52 0 51 1 48.................J....zB...fB....s....n6++++B....59+++u.....x++++;
#X connect 53 0 54 0;
#X connect 54 0 55 0;
#X connect 55 0 56 0;
#X connect 56 0 43 1;
#X connect 56 0 79 0;
#X connect 61 0 62 0;
#X connect 61 0 19 1;
#X connect 62 0 63 0;
#X connect 63 0 19 1;
#X connect 64 0 51 0;
#X connect 66 0 69 0;
#X connect 67 0 68 0;
#X connect 68 0 65 0;
#X connect 69 0 70 0;
#X connect 69 1 68 0;
#X connect 70 0 67 0;
#X connect 71 0 72 0;
#X connect 71 1 73 0;
#X connect 71 2 74 0;
#X connect 72 0 77 0;
#X connect 73 0 75 0;
#X connect 74 0 76 0;
#X connect 78 0 77 0;
#X connect 78 0 75 0;
#X connect 78 0 76 0;
#X connect 79 0 71 0;
#X connect 79 1 78 0;
#X connect 80 0 50 0;
#X connect 80 1 50 1;
