#N canvas 827 239 527 327 12;
#X obj 148 100 r~ feedback;
#X obj 22 188 hsl 162 19 0 2000 0 0 empty empty Delay\ time -2 -10 0 12 #fcfcfc #000000 #000000 0 1;
#X obj 4 240 pack f 50;
#X obj 4 279 line~;
#X obj 3 515 s~ feedback;
#X obj 143 515 *~;
#X obj 293 515 *~;
#X obj 205 299 vsl 15 128 0 1 0 0 empty empty empty 0 -9 0 10 #fcfcfc #000000 #000000 0 1;
#X obj 242 430 - 1;
#X floatatom 242 488 5 0 0 0 - - - 0;
#X obj 242 460 * -1;
#X floatatom 203 488 5 0 0 0 - - - 0;
#X obj 202 582 +~;
#X text 219 257 Mix;
#X text 242 281 Wet;
#X text 246 389 Dry;
#X obj 143 219 r Knob2 @hv_param;
#X obj 57 376 r Knob1 @hv_param;
#X obj 202 637 dac~;
#X obj 3 439 *~ 0.6;
#X obj 1021 152 timer;
#X obj 1000 106 bng 25 250 50 0 empty empty empty 17 7 0 10 #e4e4e4 #4d4d4d #373737;
#X floatatom 1021 199 15 0 0 0 - - - 16;
#X obj 1162 199 + 1;
#X floatatom 1162 252 14 0 0 0 - - - 16;
#X msg 1127 137 1;
#X obj 1021 267 /;
#X floatatom 1021 310 16 0 0 0 - - - 16;
#X msg 1185 137 0;
#X obj 1075 85 t f b b;
#X obj 902 240 t f f;
#X obj 902 291 -;
#X obj 902 332 f;
#X obj 902 369 abs;
#X obj 891 472 moses 2000;
#X obj 1035 615 s led1 @hv_param;
#X obj 1215 461 metro;
#X obj 1215 528 bng 25 250 50 0 empty empty empty 17 7 0 10 #e4e4e4 #4d4d4d #373737;
#X msg 1137 428 0;
#X obj 668 12 r Button1 @hv_param;
#X floatatom 902 425 8 0 0 0 - - - 12;
#X floatatom 1116 556 5 0 0 0 - - - 12;
#X obj 1197 597 tgl 25 0 empty empty empty 17 7 0 10 #e4e4e4 #4d4d4d #373737 0 1;
#X obj 1055 31 bng 25 250 50 0 empty empty empty 17 7 0 10 #e4e4e4 #4d4d4d #373737;
#X floatatom 38 131 7 0 0 0 - - - 16;
#X obj 4 337 vd~ tapdelay;
#X obj 148 152 delwrite~ tapdelay 2000;
#X obj 535 99 + 1;
#X floatatom 535 135 5 0 0 0 - - - 12;
#X floatatom 608 226 5 0 0 0 - - - 12;
#X obj 535 183 % 4;
#X obj 608 255 select 0 1 2 3;
#X obj 608 311 / 2;
#X floatatom 608 362 10 0 0 0 - - - 16;
#X floatatom 687 362 10 0 0 0 - - - 16;
#X obj 687 311 / 3;
#X floatatom 766 320 10 0 0 0 - - - 16;
#X obj 766 269 / 4;
#X floatatom 530 362 10 0 0 0 - - - 16;
#X obj 530 311 / 1;
#X obj 658 539 metro;
#X obj 668 582 tgl 25 0 empty empty empty 17 7 0 10 #e4e4e4 #4d4d4d #373737 0 1;
#X obj 668 637 s led2 @hv_param;
#X obj 535 27 bng 25 250 50 0 empty empty empty 17 7 0 10 #e4e4e4 #4d4d4d #373737;
#X obj 293 68 adc~;
#X obj 595 43 t b b;
#X msg 662 119 1;
#X obj 1122 27 r Button2 @hv_param;
#X connect 0 0 46 0;
#X connect 1 0 2 0;
#X connect 2 0 3 0;
#X connect 3 0 45 0;
#X connect 5 0 12 0;
#X connect 6 0 12 1;
#X connect 7 0 8 0;
#X connect 7 0 11 0;
#X connect 8 0 10 0;
#X connect 9 0 6 1;
#X connect 10 0 9 0;
#X connect 11 0 5 1;
#X connect 12 0 18 0;
#X connect 12 0 18 1;
#X connect 16 0 7 0;
#X connect 17 0 19 1;
#X connect 19 0 4 0;
#X connect 20 0 22 0;
#X connect 21 0 20 0;
#X connect 21 0 28 0;
#X connect 21 0 36 0 32.................QD...jM...PDA...YC...fZ....;
#X connect 22 0 26 0;
#X connect 22 0 30 0;
#X connect 23 0 24 0;
#X connect 24 0 26 1;
#X connect 24 0 23 1 48.................V....rF...fE....qA...P5++++B....j9+++u....fs++++;
#X connect 25 0 23 0;
#X connect 26 0 27 0;
#X connect 27 0 36 1 32.................t....rM...fK....aC...7M....;
#X connect 27 0 59 0;
#X connect 27 0 52 0;
#X connect 27 0 55 0;
#X connect 27 0 57 0;
#X connect 27 0 44 0;
#X connect 28 0 23 1;
#X connect 28 0 24 0;
#X connect 29 1 20 1;
#X connect 29 2 25 0;
#X connect 30 0 31 1;
#X connect 30 1 31 0;
#X connect 31 0 32 0;
#X connect 32 0 33 0;
#X connect 33 0 40 0;
#X connect 34 1 21 0 48.................J....PA...fB....T.....m++++U....v4+++eE...fe9+++;
#X connect 36 0 37 0;
#X connect 37 0 42 0;
#X connect 38 0 36 0 32......................7D.........OA...z.....;
#X connect 39 0 65 0;
#X connect 40 0 34 0;
#X connect 41 0 35 0;
#X connect 42 0 41 0;
#X connect 43 0 29 0;
#X connect 44 0 1 0;
#X connect 45 0 5 0;
#X connect 45 0 19 0;
#X connect 47 0 48 0;
#X connect 48 0 47 1 48.................Q....rB...PD....q....T7++++B....E++++u....vx++++;
#X connect 48 0 50 0;
#X connect 49 0 51 0;
#X connect 50 0 49 0;
#X connect 51 0 59 0;
#X connect 51 1 52 0;
#X connect 51 2 55 0;
#X connect 51 3 57 0;
#X connect 52 0 53 0;
#X connect 53 0 60 1;
#X connect 53 0 60 0;
#X connect 53 0 44 0;
#X connect 54 0 60 1;
#X connect 54 0 60 0;
#X connect 54 0 44 0;
#X connect 55 0 54 0;
#X connect 56 0 60 1;
#X connect 56 0 60 0;
#X connect 56 0 44 0;
#X connect 57 0 56 0;
#X connect 58 0 60 1;
#X connect 58 0 60 0;
#X connect 58 0 44 0;
#X connect 59 0 58 0;
#X connect 60 0 61 0;
#X connect 61 0 62 0;
#X connect 63 0 47 0;
#X connect 64 0 6 0;
#X connect 64 0 46 0;
#X connect 65 1 66 0;
#X connect 66 0 47 0;
#X connect 67 0 29 0;
