#N canvas 1208 42 404 481 12;
#X obj 192 717 dac~;
#X obj 304 112 r Knob1 @hv_param;
#X obj 111 541 *~;
#X obj 674 484 r Knob2 @hv_param;
#X obj 190 364 *~;
#X obj 766 74 r Encoder @hv_param;
#X msg 808 104 1;
#X obj 619 353 vsl 17 128 0 1 0 0 empty empty empty 0 -9 0 10 #e4e4e4 #4d4d4d #373737 0 1;
#X obj 206 34 vsl 17 128 0 16 0 0 empty empty empty 0 -9 0 10 #e4e4e4 #4d4d4d #373737 0 1;
#X obj 750 195 +;
#X obj 656 53 loadbang;
#X obj 688 195 f;
#X obj 623 48 bng 25 250 50 0 empty empty empty 17 7 0 10 #e4e4e4 #4d4d4d #373737;
#X msg 688 97 0.5;
#X obj 766 150 * 0.05;
#X msg 859 104 -1;
#X text 234 33 Rate;
#X obj 201 275 osc~;
#X floatatom 219 195 5 0 0 0 - - - 12;
#X obj 190 455 *~ 1.4;
#X text 656 380 Depth;
#X floatatom 616 520 5 0 0 0 - - - 12;
#X msg 674 570 1;
#X obj 605 608 -;
#X floatatom 553 570 8 0 0 0 - - - 16;
#X floatatom 605 648 9 0 0 0 - - - 16;
#X obj 190 539 *~;
#X obj 370 364 *~;
#X obj 381 275 osc~;
#X obj 370 455 *~ 1.4;
#X obj 296 541 *~;
#X obj 381 528 *~;
#X obj 713 253 clip 0 0.5;
#X floatatom 656 311 5 0 0 0 - - - 12;
#X obj 79 88 adc~;
#X obj 845 311 s led1 @hv_param;
#X obj 314 162 * 16;
#X text 775 19 Phase offset;
#X connect 1 0 36 0;
#X connect 2 0 0 0;
#X connect 3 0 21 0;
#X connect 4 0 19 0;
#X connect 5 0 14 0;
#X connect 6 0 14 0;
#X connect 7 0 21 0;
#X connect 8 0 18 0;
#X connect 8 0 17 0;
#X connect 8 0 28 0;
#X connect 9 0 11 0;
#X connect 9 0 32 0;
#X connect 10 0 13 0;
#X connect 11 0 9 1;
#X connect 12 0 13 0;
#X connect 13 0 11 0;
#X connect 14 0 9 0;
#X connect 15 0 14 0;
#X connect 17 0 4 1;
#X connect 19 0 26 0;
#X connect 21 0 23 1;
#X connect 21 0 24 0;
#X connect 21 0 22 0;
#X connect 22 0 23 0;
#X connect 23 0 25 0;
#X connect 24 0 26 1;
#X connect 24 0 31 1;
#X connect 25 0 2 1;
#X connect 25 0 30 1;
#X connect 26 0 0 0;
#X connect 27 0 29 0;
#X connect 28 0 27 1;
#X connect 29 0 31 0;
#X connect 30 0 0 1;
#X connect 31 0 0 1;
#X connect 32 0 28 1;
#X connect 32 0 33 0;
#X connect 32 0 35 0;
#X connect 34 0 4 0;
#X connect 34 0 2 0;
#X connect 34 0 27 0;
#X connect 34 0 30 0;
#X connect 36 0 17 0;
#X connect 36 0 28 0;
